<?xml version="1.0" encoding="UTF-8" standalone="no"?>
<svg
   width="72"
   height="72"
   viewBox="0 0 72 72"
   fill="none"
   version="1.1"
   id="svg24"
   sodipodi:docname="D222SnowShowersV2.svg"
   inkscape:version="1.4 (e7c3feb100, 2024-10-09)"
   xmlns:inkscape="http://www.inkscape.org/namespaces/inkscape"
   xmlns:sodipodi="http://sodipodi.sourceforge.net/DTD/sodipodi-0.dtd"
   xmlns="http://www.w3.org/2000/svg"
   xmlns:svg="http://www.w3.org/2000/svg">
  <sodipodi:namedview
     id="namedview24"
     pagecolor="#505050"
     bordercolor="#eeeeee"
     borderopacity="1"
     inkscape:showpageshadow="0"
     inkscape:pageopacity="0"
     inkscape:pagecheckerboard="0"
     inkscape:deskcolor="#505050"
     inkscape:zoom="11.361111"
     inkscape:cx="36"
     inkscape:cy="36"
     inkscape:window-width="1920"
     inkscape:window-height="1016"
     inkscape:window-x="0"
     inkscape:window-y="28"
     inkscape:window-maximized="1"
     inkscape:current-layer="svg24" />
  <path
     fill-rule="evenodd"
     clip-rule="evenodd"
     d="m 18.2212,39.8204 c 15.471,0 28.0128,-12.5868 28.0128,-28.1134 0,-3.33331 -0.5781,-6.53113 -1.6391,-9.49801 C 44.1418,0.9419 45.2796,-0.38907 46.5287,0.111438 57.9375,4.68279 65.9988,15.8742 65.9988,28.9553 c 0,17.146 -13.8499,31.0456 -30.9347,31.0456 -13.2568,0 -24.5659,-8.3688 -28.96815,-20.1294 -0.47203,-1.261 0.88591,-2.3698 2.14337,-1.8884 3.10078,1.1871 6.46568,1.8373 9.98188,1.8373 z"
     fill="url(#paint0_linear_2_2266)"
     id="path1"
     style="display:none;fill:url(#paint0_linear_2_2266)" />
  <circle
     cx="36"
     cy="30"
     r="30"
     fill="url(#paint0_linear_2_2249)"
     id="circle1"
     style="fill:url(#paint0_linear_2_2249)" />
  <path
     fill-rule="evenodd"
     clip-rule="evenodd"
     d="M 25.6875,67.25 H 42.3125 43.5 58.9375 C 66.1517,67.25 72,61.4017 72,54.1875 72,46.9733 66.1517,41.125 58.9375,41.125 c -0.2864,0 -0.5707,0.0092 -0.8525,0.0274 -2.9819,-5.6648 -8.9261,-9.5274 -15.7725,-9.5274 -8.629,0 -15.8248,6.1358 -17.4627,14.2823 C 19.3388,46.3346 15,50.9419 15,56.5625 15,62.465 19.785,67.25 25.6875,67.25 Z"
     fill="#e7f1ff"
     id="path2" />
  <path
     fill-rule="evenodd"
     clip-rule="evenodd"
     d="M 25.6875,67.25 H 42.3125 43.5 58.9375 C 66.1517,67.25 72,61.4017 72,54.1875 72,46.9733 66.1517,41.125 58.9375,41.125 c -0.2864,0 -0.5707,0.0092 -0.8525,0.0274 -2.9819,-5.6648 -8.9261,-9.5274 -15.7725,-9.5274 -8.629,0 -15.8248,6.1358 -17.4627,14.2823 C 19.3388,46.3346 15,50.9419 15,56.5625 15,62.465 19.785,67.25 25.6875,67.25 Z"
     fill="url(#paint1_linear_2_2266)"
     id="path3"
     style="fill:url(#paint1_linear_2_2266)" />
  <path
     fill-rule="evenodd"
     clip-rule="evenodd"
     d="M 25.6875,67.25 H 42.3125 43.5 58.9375 C 66.1517,67.25 72,61.4017 72,54.1875 72,46.9733 66.1517,41.125 58.9375,41.125 c -0.2864,0 -0.5707,0.0092 -0.8525,0.0274 -2.9819,-5.6648 -8.9261,-9.5274 -15.7725,-9.5274 -8.629,0 -15.8248,6.1358 -17.4627,14.2823 C 19.3388,46.3346 15,50.9419 15,56.5625 15,62.465 19.785,67.25 25.6875,67.25 Z"
     fill="url(#paint2_linear_2_2266)"
     id="path4"
     style="fill:url(#paint2_linear_2_2266)" />
  <path
     d="M 15,56.5625 C 15,50.66 19.785,45.875 25.6875,45.875 H 29.25 c 7.8701,0 14.25,6.3799 14.25,14.25 V 67.25 H 25.6875 C 19.785,67.25 15,62.465 15,56.5625 Z"
     fill="url(#paint3_radial_2_2266)"
     id="path5"
     style="fill:url(#paint3_radial_2_2266)" />
  <path
     d="m 24.5,49.4375 c 0,-9.8376 7.9749,-17.8125 17.8125,-17.8125 9.8376,0 17.8125,7.9749 17.8125,17.8125 0,9.8376 -7.9749,17.8125 -17.8125,17.8125 C 32.4749,67.25 24.5,59.2751 24.5,49.4375 Z"
     fill="url(#paint4_radial_2_2266)"
     id="path6"
     style="fill:url(#paint4_radial_2_2266)" />
  <circle
     cx="58.9375"
     cy="54.1875"
     r="13.0625"
     fill="url(#paint5_radial_2_2266)"
     id="circle6"
     style="fill:url(#paint5_radial_2_2266)" />
  <path
     fill-rule="evenodd"
     clip-rule="evenodd"
     d="m 58.9375,43.5 c 0.6559,0 1.1875,0.5317 1.1875,1.1875 v 1.8831 l 0.3478,-0.3478 c 0.4638,-0.4637 1.2157,-0.4637 1.6794,0 0.4638,0.4638 0.4638,1.2156 0,1.6794 l -2.0272,2.0272 v 3.3888 l 2.9351,-1.6946 0.7421,-2.7696 c 0.1698,-0.6335 0.8209,-1.0094 1.4544,-0.8397 0.6335,0.1698 1.0095,0.8209 0.8397,1.4544 l -0.1274,0.4756 1.6308,-0.9416 c 0.568,-0.3279 1.2942,-0.1333 1.6222,0.4347 0.3279,0.568 0.1333,1.2942 -0.4347,1.6221 l -1.6303,0.9413 0.4747,0.1272 c 0.6335,0.1697 1.0095,0.8209 0.8397,1.4543 -0.1697,0.6335 -0.8209,1.0095 -1.4544,0.8397 l -2.7687,-0.7419 -2.9361,1.6952 2.9353,1.6946 2.7688,-0.7419 c 0.6335,-0.1697 1.2846,0.2062 1.4544,0.8397 0.1697,0.6335 -0.2062,1.2847 -0.8397,1.4544 l -0.4748,0.1272 1.6303,0.9412 c 0.568,0.328 0.7626,1.0542 0.4346,1.6222 -0.3279,0.568 -1.0541,0.7626 -1.6221,0.4347 l -1.6308,-0.9416 0.1275,0.4755 c 0.1697,0.6335 -0.2062,1.2847 -0.8397,1.4544 -0.6335,0.1698 -1.2847,-0.2062 -1.4544,-0.8397 L 63.0594,59.1265 60.125,57.4323 v 3.3883 l 2.0272,2.0272 c 0.4638,0.4638 0.4638,1.2156 0,1.6794 -0.4637,0.4637 -1.2156,0.4637 -1.6794,0 L 60.125,64.1794 v 1.8831 c 0,0.6558 -0.5316,1.1875 -1.1875,1.1875 -0.6558,0 -1.1875,-0.5317 -1.1875,-1.1875 v -1.8831 l -0.3478,0.3478 c -0.4637,0.4637 -1.2156,0.4637 -1.6794,0 -0.4637,-0.4638 -0.4637,-1.2156 0,-1.6794 L 57.75,60.8206 v -3.3888 l -2.9349,1.6945 -0.7418,2.7685 c -0.1697,0.6335 -0.8209,1.0095 -1.4544,0.8397 -0.6335,-0.1697 -1.0094,-0.8209 -0.8397,-1.4544 l 0.1272,-0.4744 -1.6305,0.9413 c -0.568,0.328 -1.2942,0.1334 -1.6222,-0.4346 -0.3279,-0.568 -0.1333,-1.2943 0.4347,-1.6222 l 1.6313,-0.9418 -0.4758,-0.1275 C 49.6104,58.4512 49.2345,57.8 49.4042,57.1665 49.574,56.533 50.2251,56.1571 50.8586,56.3268 l 2.7699,0.7422 2.9336,-1.6937 -2.9344,-1.6942 -2.7698,0.7421 c -0.6335,0.1698 -1.2847,-0.2062 -1.4544,-0.8397 -0.1698,-0.6334 0.2062,-1.2846 0.8397,-1.4543 l 0.4757,-0.1275 -1.6313,-0.9419 c -0.568,-0.3279 -0.7626,-1.0541 -0.4347,-1.6221 0.328,-0.568 1.0542,-0.7626 1.6222,-0.4347 l 1.6305,0.9414 -0.1271,-0.4745 c -0.1698,-0.6335 0.2062,-1.2846 0.8397,-1.4544 0.6335,-0.1697 1.2846,0.2062 1.4544,0.8397 l 0.7418,2.7686 2.9356,1.6949 v -3.3893 l -2.0272,-2.0272 c -0.4637,-0.4638 -0.4637,-1.2156 0,-1.6794 0.4638,-0.4637 1.2157,-0.4637 1.6794,0 l 0.3478,0.3478 v -1.8831 c 0,-0.6558 0.5317,-1.1875 1.1875,-1.1875 z"
     fill="url(#paint6_linear_2_2266)"
     id="path7"
     style="fill:url(#paint6_linear_2_2266)" />
  <path
     fill-rule="evenodd"
     clip-rule="evenodd"
     d="m 30.4375,48.25 c 0.6559,0 1.1875,0.5317 1.1875,1.1875 v 1.8831 l 0.3478,-0.3478 c 0.4638,-0.4637 1.2157,-0.4637 1.6794,0 0.4638,0.4638 0.4638,1.2156 0,1.6794 l -2.0272,2.0272 v 3.3888 l 2.9351,-1.6946 0.7421,-2.7696 c 0.1698,-0.6335 0.8209,-1.0094 1.4544,-0.8397 0.6335,0.1698 1.0095,0.8209 0.8397,1.4544 l -0.1274,0.4756 1.6308,-0.9416 c 0.568,-0.3279 1.2942,-0.1333 1.6222,0.4347 0.3279,0.568 0.1333,1.2942 -0.4347,1.6221 l -1.6303,0.9413 0.4747,0.1272 c 0.6335,0.1697 1.0095,0.8209 0.8397,1.4543 -0.1697,0.6335 -0.8209,1.0095 -1.4544,0.8397 l -2.7687,-0.7419 -2.9361,1.6952 2.9353,1.6946 2.7688,-0.7419 c 0.6335,-0.1697 1.2846,0.2062 1.4544,0.8397 0.1697,0.6335 -0.2062,1.2847 -0.8397,1.4544 l -0.4748,0.1272 1.6303,0.9412 c 0.568,0.328 0.7626,1.0542 0.4346,1.6222 -0.3279,0.568 -1.0541,0.7626 -1.6221,0.4347 l -1.6308,-0.9416 0.1275,0.4755 c 0.1697,0.6335 -0.2062,1.2847 -0.8397,1.4544 -0.6335,0.1698 -1.2847,-0.2062 -1.4544,-0.8397 L 34.5594,63.8765 31.625,62.1823 v 3.3883 l 2.0272,2.0272 c 0.4638,0.4638 0.4638,1.2156 0,1.6794 -0.4637,0.4637 -1.2156,0.4637 -1.6794,0 L 31.625,68.9294 v 1.8831 C 31.625,71.4683 31.0934,72 30.4375,72 29.7817,72 29.25,71.4683 29.25,70.8125 v -1.8831 l -0.3478,0.3478 c -0.4637,0.4637 -1.2156,0.4637 -1.6794,0 -0.4637,-0.4638 -0.4637,-1.2156 0,-1.6794 L 29.25,65.5706 v -3.3888 l -2.9349,1.6945 -0.7418,2.7685 c -0.1697,0.6335 -0.8209,1.0095 -1.4544,0.8397 -0.6335,-0.1697 -1.0094,-0.8209 -0.8397,-1.4544 l 0.1272,-0.4744 -1.6305,0.9413 c -0.568,0.328 -1.2942,0.1334 -1.6222,-0.4346 -0.3279,-0.568 -0.1333,-1.2943 0.4347,-1.6222 l 1.6313,-0.9418 -0.4758,-0.1275 C 21.1104,63.2012 20.7345,62.55 20.9042,61.9165 21.074,61.283 21.7251,60.9071 22.3586,61.0768 l 2.7699,0.7422 2.9336,-1.6937 -2.9344,-1.6942 -2.7698,0.7421 c -0.6335,0.1698 -1.2847,-0.2062 -1.4544,-0.8397 -0.1698,-0.6334 0.2062,-1.2846 0.8397,-1.4543 l 0.4757,-0.1275 -1.6313,-0.9419 c -0.568,-0.3279 -0.7626,-1.0541 -0.4347,-1.6221 0.328,-0.568 1.0542,-0.7626 1.6222,-0.4347 l 1.6305,0.9414 -0.1271,-0.4745 c -0.1698,-0.6335 0.2062,-1.2846 0.8397,-1.4544 0.6335,-0.1697 1.2846,0.2062 1.4544,0.8397 l 0.7418,2.7686 2.9356,1.6949 v -3.3893 l -2.0272,-2.0272 c -0.4637,-0.4638 -0.4637,-1.2156 0,-1.6794 0.4638,-0.4637 1.2157,-0.4637 1.6794,0 l 0.3478,0.3478 v -1.8831 c 0,-0.6558 0.5317,-1.1875 1.1875,-1.1875 z"
     fill="url(#paint7_linear_2_2266)"
     id="path8"
     style="fill:url(#paint7_linear_2_2266)" />
  <defs
     id="defs24">
    <linearGradient
       id="paint0_linear_2_2266"
       x1="61.3414"
       y1="57.4755"
       x2="63.8809"
       y2="-2.09019"
       gradientUnits="userSpaceOnUse">
      <stop
         stop-color="#EE7F18"
         id="stop8" />
      <stop
         offset="0.56298"
         stop-color="#EEB82E"
         id="stop9" />
      <stop
         offset="1"
         stop-color="#FEB649"
         stop-opacity="0.78"
         id="stop10" />
    </linearGradient>
    <linearGradient
       id="paint1_linear_2_2266"
       x1="32.8125"
       y1="39.9375"
       x2="43.5"
       y2="67.25"
       gradientUnits="userSpaceOnUse">
      <stop
         stop-color="#C6D8F5"
         id="stop11" />
      <stop
         offset="1"
         stop-color="#89AFD1"
         stop-opacity="0"
         id="stop12" />
    </linearGradient>
    <linearGradient
       id="paint2_linear_2_2266"
       x1="40.4123"
       y1="68.5108"
       x2="39.6635"
       y2="31.625"
       gradientUnits="userSpaceOnUse">
      <stop
         stop-color="#547DDA"
         id="stop13" />
      <stop
         offset="0.257422"
         stop-color="#93C2FF"
         stop-opacity="0"
         id="stop14" />
    </linearGradient>
    <radialGradient
       id="paint3_radial_2_2266"
       cx="0"
       cy="0"
       r="1"
       gradientUnits="userSpaceOnUse"
       gradientTransform="matrix(-13.854189,-17.812518,20.613771,-16.032942,30.4375,67.25)">
      <stop
         offset="0.683784"
         stop-color="#8FABDD"
         stop-opacity="0"
         id="stop15" />
      <stop
         offset="1"
         stop-color="#5582D3"
         id="stop16" />
    </radialGradient>
    <radialGradient
       id="paint4_radial_2_2266"
       cx="0"
       cy="0"
       r="1"
       gradientUnits="userSpaceOnUse"
       gradientTransform="matrix(0,-32.0625,32.0625,0,42.3125,63.6875)">
      <stop
         offset="0.598765"
         stop-color="#C7DFFF"
         stop-opacity="0"
         id="stop17" />
      <stop
         offset="1"
         stop-color="#6B97E6"
         id="stop18" />
    </radialGradient>
    <radialGradient
       id="paint5_radial_2_2266"
       cx="0"
       cy="0"
       r="1"
       gradientUnits="userSpaceOnUse"
       gradientTransform="matrix(13.93336,-20.900014,20.900014,13.93336,51.9708,63.7667)">
      <stop
         offset="0.47771"
         stop-color="#8FABDD"
         stop-opacity="0"
         id="stop19" />
      <stop
         offset="1"
         stop-color="#5582D3"
         id="stop20" />
    </radialGradient>
    <linearGradient
       id="paint6_linear_2_2266"
       x1="58.9374"
       y1="43.5"
       x2="58.9374"
       y2="67.25"
       gradientUnits="userSpaceOnUse">
      <stop
         stop-color="#1A70F0"
         id="stop21" />
      <stop
         offset="1"
         stop-color="#2D94DE"
         id="stop22" />
    </linearGradient>
    <linearGradient
       id="paint7_linear_2_2266"
       x1="30.4374"
       y1="48.25"
       x2="30.4374"
       y2="72"
       gradientUnits="userSpaceOnUse">
      <stop
         stop-color="#1A70F0"
         id="stop23" />
      <stop
         offset="1"
         stop-color="#2D94DE"
         id="stop24" />
    </linearGradient>
    <linearGradient
       id="paint0_linear_2_2249"
       x1="49.5"
       y1="43"
       x2="0.57972699"
       y2="-16.707399"
       gradientUnits="userSpaceOnUse">
      <stop
         stop-color="#EF6D0F"
         id="stop6" />
      <stop
         offset="0.56298"
         stop-color="#EEB82E"
         id="stop7" />
      <stop
         offset="1"
         stop-color="#FEB649"
         stop-opacity="0.78"
         id="stop8-3" />
    </linearGradient>
  </defs>
</svg>
