<svg width="72" height="72" viewBox="0 0 72 72" fill="none" xmlns="http://www.w3.org/2000/svg">
<g clip-path="url(#clip0_2_2234)">
<circle cx="54" cy="18" r="18" fill="url(#paint0_linear_2_2234)"/>
<path fill-rule="evenodd" clip-rule="evenodd" d="M13.5 57H34.5H36H55.5C64.6127 57 72 49.6127 72 40.5C72 31.3873 64.6127 24 55.5 24C55.1382 24 54.7791 24.0116 54.4231 24.0346C50.6566 16.879 43.1481 12 34.5 12C23.6003 12 14.5107 19.7504 12.4418 30.0409C5.48057 30.5806 0 36.4003 0 43.5C0 50.9558 6.04416 57 13.5 57Z" fill="#E7F1FF"/>
<path fill-rule="evenodd" clip-rule="evenodd" d="M13.5 57H34.5H36H55.5C64.6127 57 72 49.6127 72 40.5C72 31.3873 64.6127 24 55.5 24C55.1382 24 54.7791 24.0116 54.4231 24.0346C50.6566 16.879 43.1481 12 34.5 12C23.6003 12 14.5107 19.7504 12.4418 30.0409C5.48057 30.5806 0 36.4003 0 43.5C0 50.9558 6.04416 57 13.5 57Z" fill="url(#paint1_linear_2_2234)"/>
<path fill-rule="evenodd" clip-rule="evenodd" d="M13.5 57H34.5H36H55.5C64.6127 57 72 49.6127 72 40.5C72 31.3873 64.6127 24 55.5 24C55.1382 24 54.7791 24.0116 54.4231 24.0346C50.6566 16.879 43.1481 12 34.5 12C23.6003 12 14.5107 19.7504 12.4418 30.0409C5.48057 30.5806 0 36.4003 0 43.5C0 50.9558 6.04416 57 13.5 57Z" fill="url(#paint2_linear_2_2234)"/>
<path d="M0 43.5C0 36.0442 6.04416 30 13.5 30H18C27.9411 30 36 38.0589 36 48V57H13.5C6.04416 57 0 50.9558 0 43.5V43.5Z" fill="url(#paint3_radial_2_2234)"/>
<path d="M12 34.5C12 22.0736 22.0736 12 34.5 12V12C46.9264 12 57 22.0736 57 34.5V34.5C57 46.9264 46.9264 57 34.5 57V57C22.0736 57 12 46.9264 12 34.5V34.5Z" fill="url(#paint4_radial_2_2234)"/>
<circle cx="55.5" cy="40.5" r="16.5" fill="url(#paint5_radial_2_2234)"/>
<path fill-rule="evenodd" clip-rule="evenodd" d="M15 62.4421V46.3318C15 44.4566 17.2709 43.5216 18.5912 44.8531L29.5949 55.9504C31.6697 57.5991 33 60.1444 33 63.0004C33 67.971 28.9706 72.0004 24 72.0004C19.0294 72.0004 15 67.971 15 63.0004C15 62.8105 15.0059 62.6219 15.0175 62.4349L15 62.4421Z" fill="#C4C4C4"/>
<path fill-rule="evenodd" clip-rule="evenodd" d="M15 62.4421V46.3318C15 44.4566 17.2709 43.5216 18.5912 44.8531L29.5949 55.9504C31.6697 57.5991 33 60.1444 33 63.0004C33 67.971 28.9706 72.0004 24 72.0004C19.0294 72.0004 15 67.971 15 63.0004C15 62.8105 15.0059 62.6219 15.0175 62.4349L15 62.4421Z" fill="url(#paint6_linear_2_2234)"/>
<path fill-rule="evenodd" clip-rule="evenodd" d="M55.5 39C56.3284 39 57 39.6716 57 40.5V42.8787L57.4393 42.4393C58.0251 41.8536 58.9749 41.8536 59.5607 42.4393C60.1465 43.0251 60.1465 43.9749 59.5607 44.5607L57 47.1213V51.4021L60.7075 49.2616L61.6449 45.7631C61.8593 44.9629 62.6818 44.4881 63.482 44.7025C64.2822 44.9169 64.7571 45.7394 64.5426 46.5396L64.3817 47.1403L66.4417 45.951C67.1591 45.5367 68.0765 45.7826 68.4907 46.5C68.9049 47.2174 68.6591 48.1348 67.9417 48.549L65.8824 49.738L66.482 49.8986C67.2822 50.113 67.7571 50.9355 67.5426 51.7357C67.3282 52.5359 66.5057 53.0108 65.7055 52.7964L62.2081 51.8593L58.5 54.0002L62.2075 56.1407L65.705 55.2036C66.5052 54.9892 67.3277 55.4641 67.5421 56.2643C67.7565 57.0645 67.2816 57.887 66.4814 58.1014L65.8818 58.262L67.941 59.451C68.6585 59.8652 68.9043 60.7826 68.4901 61.5C68.0759 62.2174 67.1585 62.4633 66.441 62.049L64.3811 60.8598L64.5421 61.4604C64.7565 62.2606 64.2816 63.0831 63.4814 63.2975C62.6812 63.5119 61.8587 63.0371 61.6443 62.2369L60.7069 58.7384L57 56.5983V60.8787L59.5607 63.4393C60.1465 64.0251 60.1465 64.9749 59.5607 65.5607C58.9749 66.1464 58.0251 66.1464 57.4393 65.5607L57 65.1213V67.5C57 68.3284 56.3284 69 55.5 69C54.6716 69 54 68.3284 54 67.5V65.1213L53.5607 65.5607C52.9749 66.1464 52.0251 66.1464 51.4393 65.5607C50.8536 64.9749 50.8536 64.0251 51.4393 63.4393L54 60.8787V56.5983L50.2927 58.7386L49.3557 62.2357C49.1413 63.0359 48.3188 63.5108 47.5186 63.2964C46.7184 63.082 46.2435 62.2595 46.4579 61.4593L46.6185 60.86L44.559 62.049C43.8415 62.4633 42.9241 62.2174 42.5099 61.5C42.0957 60.7826 42.3415 59.8652 43.059 59.451L45.1196 58.2613L44.5186 58.1003C43.7184 57.8858 43.2435 57.0633 43.4579 56.2631C43.6723 55.4629 44.4948 54.9881 45.295 55.2025L48.7938 56.14L52.5 54.0002L48.7932 51.86L45.2945 52.7975C44.4943 53.0119 43.6718 52.5371 43.4574 51.7369C43.243 50.9367 43.7178 50.1142 44.518 49.8997L45.119 49.7387L43.0584 48.549C42.3409 48.1348 42.0951 47.2174 42.5093 46.5C42.9235 45.7826 43.8409 45.5367 44.5584 45.951L46.618 47.1401L46.4574 46.5407C46.243 45.7405 46.7178 44.918 47.518 44.7036C48.3182 44.4892 49.1407 44.9641 49.3551 45.7643L50.2922 49.2614L54 51.4021V47.1213L51.4393 44.5607C50.8536 43.9749 50.8536 43.0251 51.4393 42.4393C52.0251 41.8536 52.9749 41.8536 53.5607 42.4393L54 42.8787V40.5C54 39.6716 54.6716 39 55.5 39Z" fill="url(#paint7_linear_2_2234)"/>
</g>
<defs>
<linearGradient id="paint0_linear_2_2234" x1="62.1" y1="25.8" x2="32.7478" y2="-10.0244" gradientUnits="userSpaceOnUse">
<stop stop-color="#EF6D0F"/>
<stop offset="0.56298" stop-color="#EEB82E"/>
<stop offset="1" stop-color="#FEB649" stop-opacity="0.78"/>
</linearGradient>
<linearGradient id="paint1_linear_2_2234" x1="22.5" y1="22.5" x2="36" y2="57" gradientUnits="userSpaceOnUse">
<stop stop-color="#C6D8F5"/>
<stop offset="1" stop-color="#89AFD1" stop-opacity="0"/>
</linearGradient>
<linearGradient id="paint2_linear_2_2234" x1="32.0998" y1="58.5925" x2="31.1538" y2="12" gradientUnits="userSpaceOnUse">
<stop stop-color="#547DDA"/>
<stop offset="0.257422" stop-color="#93C2FF" stop-opacity="0"/>
</linearGradient>
<radialGradient id="paint3_radial_2_2234" cx="0" cy="0" r="1" gradientUnits="userSpaceOnUse" gradientTransform="translate(18 54.3) rotate(-90) scale(24.3 32.4)">
<stop offset="0.598765" stop-color="#C7DFFF" stop-opacity="0"/>
<stop offset="1" stop-color="#6B97E6"/>
</radialGradient>
<radialGradient id="paint4_radial_2_2234" cx="0" cy="0" r="1" gradientUnits="userSpaceOnUse" gradientTransform="translate(34.5 52.5) rotate(-90) scale(40.5)">
<stop offset="0.598765" stop-color="#C7DFFF" stop-opacity="0"/>
<stop offset="1" stop-color="#6B97E6"/>
</radialGradient>
<radialGradient id="paint5_radial_2_2234" cx="0" cy="0" r="1" gradientUnits="userSpaceOnUse" gradientTransform="translate(46.7 52.6) rotate(-56.3099) scale(31.7288)">
<stop offset="0.47771" stop-color="#8FABDD" stop-opacity="0"/>
<stop offset="1" stop-color="#5582D3"/>
</radialGradient>
<linearGradient id="paint6_linear_2_2234" x1="28.5008" y1="70.1685" x2="12.57" y2="52.2851" gradientUnits="userSpaceOnUse">
<stop stop-color="#0066FF"/>
<stop offset="1" stop-color="#65ACFF"/>
</linearGradient>
<linearGradient id="paint7_linear_2_2234" x1="55.5" y1="39" x2="55.5" y2="69" gradientUnits="userSpaceOnUse">
<stop stop-color="#1A70F0"/>
<stop offset="1" stop-color="#2D94DE"/>
</linearGradient>
<clipPath id="clip0_2_2234">
<rect width="72" height="72" fill="white"/>
</clipPath>
</defs>
</svg>
