<svg width="72" height="72" viewBox="0 0 72 72" fill="none" xmlns="http://www.w3.org/2000/svg">
<circle cx="54" cy="24" r="18" fill="url(#paint0_linear_2_21604)"/>
<path fill-rule="evenodd" clip-rule="evenodd" d="M13.5 66H34.5H36H55.5C64.6127 66 72 58.6127 72 49.5C72 40.3873 64.6127 33 55.5 33C55.1382 33 54.7791 33.0116 54.4231 33.0346C50.6566 25.879 43.1481 21 34.5 21C23.6003 21 14.5107 28.7504 12.4418 39.0409C5.48057 39.5806 0 45.4003 0 52.5C0 59.9558 6.04416 66 13.5 66Z" fill="#E7F1FF"/>
<path fill-rule="evenodd" clip-rule="evenodd" d="M13.5 66H34.5H36H55.5C64.6127 66 72 58.6127 72 49.5C72 40.3873 64.6127 33 55.5 33C55.1382 33 54.7791 33.0116 54.4231 33.0346C50.6566 25.879 43.1481 21 34.5 21C23.6003 21 14.5107 28.7504 12.4418 39.0409C5.48057 39.5806 0 45.4003 0 52.5C0 59.9558 6.04416 66 13.5 66Z" fill="url(#paint1_linear_2_21604)"/>
<path fill-rule="evenodd" clip-rule="evenodd" d="M13.5 66H34.5H36H55.5C64.6127 66 72 58.6127 72 49.5C72 40.3873 64.6127 33 55.5 33C55.1382 33 54.7791 33.0116 54.4231 33.0346C50.6566 25.879 43.1481 21 34.5 21C23.6003 21 14.5107 28.7504 12.4418 39.0409C5.48057 39.5806 0 45.4003 0 52.5C0 59.9558 6.04416 66 13.5 66Z" fill="url(#paint2_linear_2_21604)"/>
<path d="M0 52.5C0 45.0442 6.04416 39 13.5 39H18C27.9411 39 36 47.0589 36 57V66H13.5C6.04416 66 0 59.9558 0 52.5Z" fill="url(#paint3_radial_2_21604)"/>
<path d="M12 43.5C12 31.0736 22.0736 21 34.5 21C46.9264 21 57 31.0736 57 43.5C57 55.9264 46.9264 66 34.5 66C22.0736 66 12 55.9264 12 43.5Z" fill="url(#paint4_radial_2_21604)"/>
<circle cx="55.5" cy="49.5" r="16.5" fill="url(#paint5_radial_2_21604)"/>
<path fill-rule="evenodd" clip-rule="evenodd" d="M40.5 39C41.3284 39 42 39.6716 42 40.5V42.8787L42.4393 42.4393C43.0251 41.8536 43.9749 41.8536 44.5607 42.4393C45.1465 43.0251 45.1465 43.9749 44.5607 44.5607L42 47.1213V51.4021L45.7075 49.2616L46.6449 45.7631C46.8593 44.9629 47.6818 44.4881 48.482 44.7025C49.2822 44.9169 49.7571 45.7394 49.5426 46.5396L49.3817 47.1403L51.4417 45.951C52.1591 45.5367 53.0765 45.7826 53.4907 46.5C53.9049 47.2174 53.6591 48.1348 52.9417 48.549L50.8824 49.738L51.482 49.8986C52.2822 50.113 52.7571 50.9355 52.5426 51.7357C52.3282 52.5359 51.5057 53.0108 50.7055 52.7964L47.2081 51.8593L43.5 54.0002L47.2075 56.1407L50.705 55.2036C51.5052 54.9892 52.3277 55.4641 52.5421 56.2643C52.7565 57.0645 52.2816 57.887 51.4814 58.1014L50.8818 58.262L52.941 59.451C53.6585 59.8652 53.9043 60.7826 53.4901 61.5C53.0759 62.2174 52.1585 62.4633 51.441 62.049L49.3811 60.8598L49.5421 61.4604C49.7565 62.2606 49.2816 63.0831 48.4814 63.2975C47.6812 63.5119 46.8587 63.0371 46.6443 62.2369L45.7069 58.7384L42 56.5983V60.8787L44.5607 63.4393C45.1465 64.0251 45.1465 64.9749 44.5607 65.5607C43.9749 66.1464 43.0251 66.1464 42.4393 65.5607L42 65.1213V67.5C42 68.3284 41.3284 69 40.5 69C39.6716 69 39 68.3284 39 67.5V65.1213L38.5607 65.5607C37.9749 66.1464 37.0251 66.1464 36.4393 65.5607C35.8536 64.9749 35.8536 64.0251 36.4393 63.4393L39 60.8787V56.5983L35.2928 58.7386L34.3557 62.2357C34.1413 63.0359 33.3188 63.5108 32.5186 63.2964C31.7184 63.082 31.2435 62.2595 31.4579 61.4593L31.6185 60.86L29.559 62.049C28.8415 62.4633 27.9241 62.2174 27.5099 61.5C27.0957 60.7826 27.3415 59.8652 28.059 59.451L30.1196 58.2613L29.5186 58.1003C28.7184 57.8858 28.2435 57.0633 28.4579 56.2631C28.6723 55.4629 29.4948 54.9881 30.295 55.2025L33.7938 56.14L37.5 54.0002L33.7932 51.86L30.2945 52.7975C29.4943 53.0119 28.6718 52.5371 28.4574 51.7369C28.243 50.9367 28.7178 50.1142 29.518 49.8997L30.119 49.7387L28.0584 48.549C27.3409 48.1348 27.0951 47.2174 27.5093 46.5C27.9235 45.7826 28.8409 45.5367 29.5584 45.951L31.618 47.1401L31.4574 46.5407C31.243 45.7405 31.7178 44.918 32.518 44.7036C33.3182 44.4892 34.1407 44.9641 34.3551 45.7643L35.2922 49.2614L39 51.4021V47.1213L36.4393 44.5607C35.8536 43.9749 35.8536 43.0251 36.4393 42.4393C37.0251 41.8536 37.9749 41.8536 38.5607 42.4393L39 42.8787V40.5C39 39.6716 39.6716 39 40.5 39Z" fill="url(#paint6_linear_2_21604)"/>
<defs>
<linearGradient id="paint0_linear_2_21604" x1="62.1" y1="31.8" x2="32.7478" y2="-4.02444" gradientUnits="userSpaceOnUse">
<stop stop-color="#EF6D0F"/>
<stop offset="0.56298" stop-color="#EEB82E"/>
<stop offset="1" stop-color="#FEB649" stop-opacity="0.78"/>
</linearGradient>
<linearGradient id="paint1_linear_2_21604" x1="22.5" y1="31.5" x2="36" y2="66" gradientUnits="userSpaceOnUse">
<stop stop-color="#C6D8F5"/>
<stop offset="1" stop-color="#89AFD1" stop-opacity="0"/>
</linearGradient>
<linearGradient id="paint2_linear_2_21604" x1="32.0998" y1="67.5925" x2="31.1538" y2="21" gradientUnits="userSpaceOnUse">
<stop stop-color="#547DDA"/>
<stop offset="0.257422" stop-color="#93C2FF" stop-opacity="0"/>
</linearGradient>
<radialGradient id="paint3_radial_2_21604" cx="0" cy="0" r="1" gradientUnits="userSpaceOnUse" gradientTransform="translate(19.5 66) rotate(-127.875) scale(28.5044 32.9871)">
<stop offset="0.683784" stop-color="#8FABDD" stop-opacity="0"/>
<stop offset="1" stop-color="#5582D3"/>
</radialGradient>
<radialGradient id="paint4_radial_2_21604" cx="0" cy="0" r="1" gradientUnits="userSpaceOnUse" gradientTransform="translate(34.5 61.5) rotate(-90) scale(40.5)">
<stop offset="0.598765" stop-color="#C7DFFF" stop-opacity="0"/>
<stop offset="1" stop-color="#6B97E6"/>
</radialGradient>
<radialGradient id="paint5_radial_2_21604" cx="0" cy="0" r="1" gradientUnits="userSpaceOnUse" gradientTransform="translate(46.7 61.6) rotate(-56.3099) scale(31.7288)">
<stop offset="0.47771" stop-color="#8FABDD" stop-opacity="0"/>
<stop offset="1" stop-color="#5582D3"/>
</radialGradient>
<linearGradient id="paint6_linear_2_21604" x1="52.473" y1="67.4023" x2="31.4036" y2="36.2554" gradientUnits="userSpaceOnUse">
<stop stop-color="#1AA3F0"/>
<stop offset="1" stop-color="#3451F4"/>
</linearGradient>
</defs>
</svg>
