<svg width="72" height="72" viewBox="0 0 72 72" fill="none" xmlns="http://www.w3.org/2000/svg">
<path fill-rule="evenodd" clip-rule="evenodd" d="M8.23586 26.8349C18.6618 26.8349 27.1138 18.3527 27.1138 7.88925C27.1138 6.39564 26.9416 4.94239 26.616 3.54843C26.2216 1.86008 27.728 0.167973 29.262 0.976061C35.9033 4.47472 40.4334 11.4628 40.4334 19.5128C40.4334 31.0676 31.0999 40.4346 19.5865 40.4346C11.4134 40.4346 4.3389 35.7144 0.921794 28.8422C0.149401 27.2888 1.87797 25.819 3.55866 26.2489C5.05436 26.6316 6.62144 26.8349 8.23586 26.8349Z" fill="url(#paint0_linear_2_21605)"/>
<path fill-rule="evenodd" clip-rule="evenodd" d="M13.5 69H34.5H36H55.5C64.6127 69 72 61.6127 72 52.5C72 43.3873 64.6127 36 55.5 36C55.1382 36 54.7791 36.0116 54.4231 36.0346C50.6566 28.879 43.1481 24 34.5 24C23.6003 24 14.5107 31.7504 12.4418 42.0409C5.48057 42.5806 0 48.4003 0 55.5C0 62.9558 6.04416 69 13.5 69Z" fill="#E7F1FF"/>
<path fill-rule="evenodd" clip-rule="evenodd" d="M13.5 69H34.5H36H55.5C64.6127 69 72 61.6127 72 52.5C72 43.3873 64.6127 36 55.5 36C55.1382 36 54.7791 36.0116 54.4231 36.0346C50.6566 28.879 43.1481 24 34.5 24C23.6003 24 14.5107 31.7504 12.4418 42.0409C5.48057 42.5806 0 48.4003 0 55.5C0 62.9558 6.04416 69 13.5 69Z" fill="url(#paint1_linear_2_21605)"/>
<path fill-rule="evenodd" clip-rule="evenodd" d="M13.5 69H34.5H36H55.5C64.6127 69 72 61.6127 72 52.5C72 43.3873 64.6127 36 55.5 36C55.1382 36 54.7791 36.0116 54.4231 36.0346C50.6566 28.879 43.1481 24 34.5 24C23.6003 24 14.5107 31.7504 12.4418 42.0409C5.48057 42.5806 0 48.4003 0 55.5C0 62.9558 6.04416 69 13.5 69Z" fill="url(#paint2_linear_2_21605)"/>
<path d="M0 55.5C0 48.0442 6.04416 42 13.5 42H18C27.9411 42 36 50.0589 36 60V69H13.5C6.04416 69 0 62.9558 0 55.5Z" fill="url(#paint3_radial_2_21605)"/>
<path d="M12 46.5C12 34.0736 22.0736 24 34.5 24C46.9264 24 57 34.0736 57 46.5C57 58.9264 46.9264 69 34.5 69C22.0736 69 12 58.9264 12 46.5Z" fill="url(#paint4_radial_2_21605)"/>
<circle cx="55.5" cy="52.5" r="16.5" fill="url(#paint5_radial_2_21605)"/>
<path fill-rule="evenodd" clip-rule="evenodd" d="M40.5 39C41.3284 39 42 39.6716 42 40.5V42.8787L42.4393 42.4393C43.0251 41.8536 43.9749 41.8536 44.5607 42.4393C45.1465 43.0251 45.1465 43.9749 44.5607 44.5607L42 47.1213V51.4021L45.7075 49.2616L46.6449 45.7631C46.8593 44.9629 47.6818 44.4881 48.482 44.7025C49.2822 44.9169 49.7571 45.7394 49.5426 46.5396L49.3817 47.1403L51.4417 45.951C52.1591 45.5367 53.0765 45.7826 53.4907 46.5C53.9049 47.2174 53.6591 48.1348 52.9417 48.549L50.8824 49.738L51.482 49.8986C52.2822 50.113 52.7571 50.9355 52.5426 51.7357C52.3282 52.5359 51.5057 53.0108 50.7055 52.7964L47.2081 51.8593L43.5 54.0002L47.2075 56.1407L50.705 55.2036C51.5052 54.9892 52.3277 55.4641 52.5421 56.2643C52.7565 57.0645 52.2816 57.887 51.4814 58.1014L50.8818 58.262L52.941 59.451C53.6585 59.8652 53.9043 60.7826 53.4901 61.5C53.0759 62.2174 52.1585 62.4633 51.441 62.049L49.3811 60.8598L49.5421 61.4604C49.7565 62.2606 49.2816 63.0831 48.4814 63.2975C47.6812 63.5119 46.8587 63.0371 46.6443 62.2369L45.7069 58.7384L42 56.5983V60.8787L44.5607 63.4393C45.1465 64.0251 45.1465 64.9749 44.5607 65.5607C43.9749 66.1464 43.0251 66.1464 42.4393 65.5607L42 65.1213V67.5C42 68.3284 41.3284 69 40.5 69C39.6716 69 39 68.3284 39 67.5V65.1213L38.5607 65.5607C37.9749 66.1464 37.0251 66.1464 36.4393 65.5607C35.8536 64.9749 35.8536 64.0251 36.4393 63.4393L39 60.8787V56.5983L35.2928 58.7386L34.3557 62.2357C34.1413 63.0359 33.3188 63.5108 32.5186 63.2964C31.7184 63.082 31.2435 62.2595 31.4579 61.4593L31.6185 60.86L29.559 62.049C28.8415 62.4633 27.9241 62.2174 27.5099 61.5C27.0957 60.7826 27.3415 59.8652 28.059 59.451L30.1196 58.2613L29.5186 58.1003C28.7184 57.8858 28.2435 57.0633 28.4579 56.2631C28.6723 55.4629 29.4948 54.9881 30.295 55.2025L33.7938 56.14L37.5 54.0002L33.7932 51.86L30.2945 52.7975C29.4943 53.0119 28.6718 52.5371 28.4574 51.7369C28.243 50.9367 28.7178 50.1142 29.518 49.8997L30.119 49.7387L28.0584 48.549C27.3409 48.1348 27.0951 47.2174 27.5093 46.5C27.9235 45.7826 28.8409 45.5367 29.5584 45.951L31.618 47.1401L31.4574 46.5407C31.243 45.7405 31.7178 44.918 32.518 44.7036C33.3182 44.4892 34.1407 44.9641 34.3551 45.7643L35.2922 49.2614L39 51.4021V47.1213L36.4393 44.5607C35.8536 43.9749 35.8536 43.0251 36.4393 42.4393C37.0251 41.8536 37.9749 41.8536 38.5607 42.4393L39 42.8787V40.5C39 39.6716 39.6716 39 40.5 39Z" fill="url(#paint6_linear_2_21605)"/>
<defs>
<linearGradient id="paint0_linear_2_21605" x1="37.3517" y1="38.765" x2="39.0292" y2="-0.616216" gradientUnits="userSpaceOnUse">
<stop stop-color="#EE7F18"/>
<stop offset="0.56298" stop-color="#EEB82E"/>
<stop offset="1" stop-color="#FEB649" stop-opacity="0.78"/>
</linearGradient>
<linearGradient id="paint1_linear_2_21605" x1="22.5" y1="34.5" x2="36" y2="69" gradientUnits="userSpaceOnUse">
<stop stop-color="#C6D8F5"/>
<stop offset="1" stop-color="#89AFD1" stop-opacity="0"/>
</linearGradient>
<linearGradient id="paint2_linear_2_21605" x1="32.0998" y1="70.5925" x2="31.1538" y2="24" gradientUnits="userSpaceOnUse">
<stop stop-color="#547DDA"/>
<stop offset="0.257422" stop-color="#93C2FF" stop-opacity="0"/>
</linearGradient>
<radialGradient id="paint3_radial_2_21605" cx="0" cy="0" r="1" gradientUnits="userSpaceOnUse" gradientTransform="translate(19.5 69) rotate(-127.875) scale(28.5044 32.9871)">
<stop offset="0.683784" stop-color="#8FABDD" stop-opacity="0"/>
<stop offset="1" stop-color="#5582D3"/>
</radialGradient>
<radialGradient id="paint4_radial_2_21605" cx="0" cy="0" r="1" gradientUnits="userSpaceOnUse" gradientTransform="translate(34.5 64.5) rotate(-90) scale(40.5)">
<stop offset="0.598765" stop-color="#C7DFFF" stop-opacity="0"/>
<stop offset="1" stop-color="#6B97E6"/>
</radialGradient>
<radialGradient id="paint5_radial_2_21605" cx="0" cy="0" r="1" gradientUnits="userSpaceOnUse" gradientTransform="translate(46.7 64.6) rotate(-56.3099) scale(31.7288)">
<stop offset="0.47771" stop-color="#8FABDD" stop-opacity="0"/>
<stop offset="1" stop-color="#5582D3"/>
</radialGradient>
<linearGradient id="paint6_linear_2_21605" x1="52.473" y1="67.4023" x2="31.4036" y2="36.2554" gradientUnits="userSpaceOnUse">
<stop stop-color="#1AA3F0"/>
<stop offset="1" stop-color="#3451F4"/>
</linearGradient>
</defs>
</svg>
