<svg width="72" height="72" viewBox="0 0 72 72" fill="none" xmlns="http://www.w3.org/2000/svg">
<path fill-rule="evenodd" clip-rule="evenodd" d="M13.5 54H34.5H36H55.5C64.6127 54 72 46.6127 72 37.5C72 28.3873 64.6127 21 55.5 21C55.1382 21 54.7791 21.0116 54.4231 21.0346C50.6566 13.879 43.1481 9 34.5 9C23.6003 9 14.5107 16.7504 12.4418 27.0409C5.48057 27.5806 0 33.4003 0 40.5C0 47.9558 6.04416 54 13.5 54Z" fill="#E7F1FF"/>
<path fill-rule="evenodd" clip-rule="evenodd" d="M13.5 54H34.5H36H55.5C64.6127 54 72 46.6127 72 37.5C72 28.3873 64.6127 21 55.5 21C55.1382 21 54.7791 21.0116 54.4231 21.0346C50.6566 13.879 43.1481 9 34.5 9C23.6003 9 14.5107 16.7504 12.4418 27.0409C5.48057 27.5806 0 33.4003 0 40.5C0 47.9558 6.04416 54 13.5 54Z" fill="url(#paint0_linear_537_36597)"/>
<path fill-rule="evenodd" clip-rule="evenodd" d="M13.5 54H34.5H36H55.5C64.6127 54 72 46.6127 72 37.5C72 28.3873 64.6127 21 55.5 21C55.1382 21 54.7791 21.0116 54.4231 21.0346C50.6566 13.879 43.1481 9 34.5 9C23.6003 9 14.5107 16.7504 12.4418 27.0409C5.48057 27.5806 0 33.4003 0 40.5C0 47.9558 6.04416 54 13.5 54Z" fill="url(#paint1_linear_537_36597)"/>
<path d="M0 40.5C0 33.0442 6.04416 27 13.5 27H18C27.9411 27 36 35.0589 36 45V54H13.5C6.04416 54 0 47.9558 0 40.5Z" fill="url(#paint2_radial_537_36597)"/>
<path d="M12 31.5C12 19.0736 22.0736 9 34.5 9C46.9264 9 57 19.0736 57 31.5C57 43.9264 46.9264 54 34.5 54C22.0736 54 12 43.9264 12 31.5Z" fill="url(#paint3_radial_537_36597)"/>
<circle cx="55.5" cy="37.5" r="16.5" fill="url(#paint4_radial_537_36597)"/>
<path fill-rule="evenodd" clip-rule="evenodd" d="M40.5 36C41.3284 36 42 36.6716 42 37.5V39.8787L42.4393 39.4393C43.0251 38.8536 43.9749 38.8536 44.5607 39.4393C45.1465 40.0251 45.1465 40.9749 44.5607 41.5607L42 44.1213V48.4021L45.7077 46.2615L46.6449 42.7639C46.8593 41.9637 47.6818 41.4888 48.482 41.7032C49.2822 41.9176 49.7571 42.7401 49.5426 43.5403L49.3819 44.1402L51.4417 42.951C52.1591 42.5367 53.0765 42.7826 53.4907 43.5C53.9049 44.2174 53.6591 45.1348 52.9417 45.549L50.8815 46.7385L51.482 46.8994C52.2822 47.1138 52.7571 47.9363 52.5426 48.7365C52.3282 49.5367 51.5057 50.0116 50.7055 49.7971L47.2073 48.8598L43.5 51.0002L47.2067 53.1402L50.705 52.2029C51.5052 51.9884 52.3277 52.4633 52.5421 53.2635C52.7565 54.0637 52.2816 54.8862 51.4814 55.1006L50.8809 55.2615L52.941 56.451C53.6585 56.8652 53.9043 57.7826 53.4901 58.5C53.0759 59.2174 52.1585 59.4633 51.441 59.049L49.3814 57.8599L49.5421 58.4597C49.7565 59.2599 49.2816 60.0824 48.4814 60.2968C47.6812 60.5112 46.8587 60.0363 46.6443 59.2361L45.7071 55.7386L42 53.5983V57.8787L44.5607 60.4393C45.1465 61.0251 45.1465 61.9749 44.5607 62.5607C43.9749 63.1464 43.0251 63.1464 42.4393 62.5607L42 62.1213V64.5C42 65.3284 41.3284 66 40.5 66C39.6716 66 39 65.3284 39 64.5V62.1213L38.5607 62.5607C37.9749 63.1464 37.0251 63.1464 36.4393 62.5607C35.8536 61.9749 35.8536 61.0251 36.4393 60.4393L39 57.8787V53.5983L35.293 55.7385L34.3557 59.2365C34.1413 60.0367 33.3188 60.5116 32.5186 60.2971C31.7184 60.0827 31.2435 59.2602 31.4579 58.46L31.6187 57.8598L29.559 59.049C28.8415 59.4633 27.9241 59.2174 27.5099 58.5C27.0957 57.7826 27.3415 56.8652 28.059 56.451L30.1187 55.2618L29.5186 55.101C28.7184 54.8866 28.2435 54.0641 28.4579 53.2639C28.6723 52.4637 29.4948 51.9888 30.295 52.2032L33.7929 53.1405L37.5 51.0002L33.7923 48.8595L30.2945 49.7968C29.4943 50.0112 28.6718 49.5363 28.4574 48.7361C28.243 47.9359 28.7178 47.1134 29.518 46.899L30.1181 46.7382L28.0584 45.549C27.3409 45.1348 27.0951 44.2174 27.5093 43.5C27.9235 42.7826 28.8409 42.5367 29.5584 42.951L31.6182 44.1402L31.4574 43.54C31.243 42.7398 31.7178 41.9173 32.518 41.7029C33.3182 41.4884 34.1407 41.9633 34.3551 42.7635L35.2924 46.2615L39 48.4021V44.1213L36.4393 41.5607C35.8536 40.9749 35.8536 40.0251 36.4393 39.4393C37.0251 38.8536 37.9749 38.8536 38.5607 39.4393L39 39.8787V37.5C39 36.6716 39.6716 36 40.5 36Z" fill="url(#paint5_linear_537_36597)"/>
<defs>
<linearGradient id="paint0_linear_537_36597" x1="22.5" y1="19.5" x2="36" y2="54" gradientUnits="userSpaceOnUse">
<stop stop-color="#C6D8F5"/>
<stop offset="1" stop-color="#89AFD1" stop-opacity="0"/>
</linearGradient>
<linearGradient id="paint1_linear_537_36597" x1="32.0998" y1="55.5925" x2="31.1538" y2="9" gradientUnits="userSpaceOnUse">
<stop stop-color="#547DDA"/>
<stop offset="0.257422" stop-color="#93C2FF" stop-opacity="0"/>
</linearGradient>
<radialGradient id="paint2_radial_537_36597" cx="0" cy="0" r="1" gradientUnits="userSpaceOnUse" gradientTransform="translate(19.5 54) rotate(-127.875) scale(28.5044 32.9871)">
<stop offset="0.683784" stop-color="#8FABDD" stop-opacity="0"/>
<stop offset="1" stop-color="#5582D3"/>
</radialGradient>
<radialGradient id="paint3_radial_537_36597" cx="0" cy="0" r="1" gradientUnits="userSpaceOnUse" gradientTransform="translate(34.5 49.5) rotate(-90) scale(40.5)">
<stop offset="0.598765" stop-color="#C7DFFF" stop-opacity="0"/>
<stop offset="1" stop-color="#6B97E6"/>
</radialGradient>
<radialGradient id="paint4_radial_537_36597" cx="0" cy="0" r="1" gradientUnits="userSpaceOnUse" gradientTransform="translate(46.7 49.6) rotate(-56.3099) scale(31.7288)">
<stop offset="0.47771" stop-color="#8FABDD" stop-opacity="0"/>
<stop offset="1" stop-color="#5582D3"/>
</radialGradient>
<linearGradient id="paint5_linear_537_36597" x1="40.5" y1="36" x2="40.5" y2="66" gradientUnits="userSpaceOnUse">
<stop stop-color="#1A70F0"/>
<stop offset="1" stop-color="#2D94DE"/>
</linearGradient>
</defs>
</svg>
