<svg width="72" height="72" viewBox="0 0 72 72" fill="none" xmlns="http://www.w3.org/2000/svg">
<g clip-path="url(#clip0_2_2258)">
<path fill-rule="evenodd" clip-rule="evenodd" d="M18.2212 39.8204C33.6922 39.8204 46.234 27.2336 46.234 11.707C46.234 8.37369 45.6559 5.17587 44.5949 2.20899C44.1418 0.9419 45.2796 -0.38907 46.5287 0.111438C57.9375 4.68279 65.9988 15.8742 65.9988 28.9553C65.9988 46.1013 52.1489 60.0009 35.0641 60.0009C21.8073 60.0009 10.4982 51.6321 6.09595 39.8715C5.62392 38.6105 6.98186 37.5017 8.23932 37.9831C11.3401 39.1702 14.705 39.8204 18.2212 39.8204Z" fill="url(#paint0_linear_2_2258)"/>
<path fill-rule="evenodd" clip-rule="evenodd" d="M25.6875 60.75H42.3125H43.5H58.9375C66.1517 60.75 72 54.9017 72 47.6875C72 40.4733 66.1517 34.625 58.9375 34.625C58.6511 34.625 58.3668 34.6342 58.085 34.6524C55.1031 28.9876 49.1589 25.125 42.3125 25.125C33.6835 25.125 26.4877 31.2608 24.8498 39.4073C19.3388 39.8346 15 44.4419 15 50.0625C15 55.965 19.785 60.75 25.6875 60.75Z" fill="#E7F1FF"/>
<path fill-rule="evenodd" clip-rule="evenodd" d="M25.6875 60.75H42.3125H43.5H58.9375C66.1517 60.75 72 54.9017 72 47.6875C72 40.4733 66.1517 34.625 58.9375 34.625C58.6511 34.625 58.3668 34.6342 58.085 34.6524C55.1031 28.9876 49.1589 25.125 42.3125 25.125C33.6835 25.125 26.4877 31.2608 24.8498 39.4073C19.3388 39.8346 15 44.4419 15 50.0625C15 55.965 19.785 60.75 25.6875 60.75Z" fill="url(#paint1_linear_2_2258)"/>
<path fill-rule="evenodd" clip-rule="evenodd" d="M25.6875 60.75H42.3125H43.5H58.9375C66.1517 60.75 72 54.9017 72 47.6875C72 40.4733 66.1517 34.625 58.9375 34.625C58.6511 34.625 58.3668 34.6342 58.085 34.6524C55.1031 28.9876 49.1589 25.125 42.3125 25.125C33.6835 25.125 26.4877 31.2608 24.8498 39.4073C19.3388 39.8346 15 44.4419 15 50.0625C15 55.965 19.785 60.75 25.6875 60.75Z" fill="url(#paint2_linear_2_2258)"/>
<path d="M15 50.0625C15 44.16 19.785 39.375 25.6875 39.375H29.25C37.1201 39.375 43.5 45.7549 43.5 53.625V60.75H25.6875C19.785 60.75 15 55.965 15 50.0625Z" fill="url(#paint3_radial_2_2258)"/>
<path d="M24.5 42.9375C24.5 33.0999 32.4749 25.125 42.3125 25.125C52.1501 25.125 60.125 33.0999 60.125 42.9375C60.125 52.7751 52.1501 60.75 42.3125 60.75C32.4749 60.75 24.5 52.7751 24.5 42.9375Z" fill="url(#paint4_radial_2_2258)"/>
<circle cx="58.9375" cy="47.6875" r="13.0625" fill="url(#paint5_radial_2_2258)"/>
<path fill-rule="evenodd" clip-rule="evenodd" d="M43.6875 45.5C44.3434 45.5 44.875 46.0317 44.875 46.6875V48.5706L45.2228 48.2228C45.6866 47.7591 46.4385 47.7591 46.9022 48.2228C47.366 48.6866 47.366 49.4384 46.9022 49.9022L44.875 51.9294V55.3182L47.8101 53.6236L48.5522 50.854C48.722 50.2205 49.3731 49.8446 50.0066 50.0143C50.6401 50.1841 51.0161 50.8352 50.8463 51.4687L50.7189 51.9443L52.3497 51.0027C52.9177 50.6748 53.6439 50.8694 53.9719 51.4374C54.2998 52.0054 54.1052 52.7316 53.5372 53.0595L51.9069 54.0008L52.3816 54.128C53.0151 54.2977 53.3911 54.9489 53.2213 55.5823C53.0516 56.2158 52.4004 56.5918 51.7669 56.422L48.9982 55.6801L46.0621 57.3753L48.9974 59.0699L51.7662 58.328C52.3997 58.1583 53.0508 58.5342 53.2206 59.1677C53.3903 59.8012 53.0144 60.4524 52.3809 60.6221L51.9061 60.7493L53.5364 61.6905C54.1044 62.0185 54.299 62.7447 53.971 63.3127C53.6431 63.8807 52.9169 64.0753 52.3489 63.7474L50.7181 62.8058L50.8456 63.2813C51.0153 63.9148 50.6394 64.566 50.0059 64.7357C49.3724 64.9055 48.7212 64.5295 48.5515 63.896L47.8094 61.1265L44.875 59.4323V62.8206L46.9022 64.8478C47.366 65.3116 47.366 66.0634 46.9022 66.5272C46.4385 66.9909 45.6866 66.9909 45.2228 66.5272L44.875 66.1794V68.0625C44.875 68.7183 44.3434 69.25 43.6875 69.25C43.0317 69.25 42.5 68.7183 42.5 68.0625V66.1794L42.1522 66.5272C41.6885 66.9909 40.9366 66.9909 40.4728 66.5272C40.0091 66.0634 40.0091 65.3116 40.4728 64.8478L42.5 62.8206V59.4318L39.5651 61.1263L38.8233 63.8948C38.6536 64.5283 38.0024 64.9043 37.3689 64.7345C36.7354 64.5648 36.3595 63.9136 36.5292 63.2801L36.6564 62.8057L35.0259 63.747C34.4579 64.075 33.7317 63.8804 33.4037 63.3124C33.0758 62.7444 33.2704 62.0181 33.8384 61.6902L35.4697 60.7484L34.9939 60.6209C34.3604 60.4512 33.9845 59.8 34.1542 59.1665C34.324 58.533 34.9751 58.1571 35.6086 58.3268L38.3785 59.069L41.3121 57.3753L38.3777 55.6811L35.6079 56.4232C34.9744 56.593 34.3232 56.217 34.1535 55.5835C33.9837 54.9501 34.3597 54.2989 34.9932 54.1292L35.4689 54.0017L33.8376 53.0598C33.2696 52.7319 33.075 52.0057 33.4029 51.4377C33.7309 50.8697 34.4571 50.6751 35.0251 51.003L36.6556 51.9444L36.5285 51.4699C36.3587 50.8364 36.7347 50.1853 37.3682 50.0155C38.0017 49.8458 38.6528 50.2217 38.8226 50.8552L39.5644 53.6238L42.5 55.3187V51.9294L40.4728 49.9022C40.0091 49.4384 40.0091 48.6866 40.4728 48.2228C40.9366 47.7591 41.6885 47.7591 42.1522 48.2228L42.5 48.5706V46.6875C42.5 46.0317 43.0317 45.5 43.6875 45.5Z" fill="url(#paint6_linear_2_2258)"/>
</g>
<defs>
<linearGradient id="paint0_linear_2_2258" x1="61.3414" y1="57.4755" x2="63.8809" y2="-2.09019" gradientUnits="userSpaceOnUse">
<stop stop-color="#EE7F18"/>
<stop offset="0.56298" stop-color="#EEB82E"/>
<stop offset="1" stop-color="#FEB649" stop-opacity="0.78"/>
</linearGradient>
<linearGradient id="paint1_linear_2_2258" x1="32.8125" y1="33.4375" x2="43.5" y2="60.75" gradientUnits="userSpaceOnUse">
<stop stop-color="#C6D8F5"/>
<stop offset="1" stop-color="#89AFD1" stop-opacity="0"/>
</linearGradient>
<linearGradient id="paint2_linear_2_2258" x1="40.4123" y1="62.0108" x2="39.6635" y2="25.125" gradientUnits="userSpaceOnUse">
<stop stop-color="#547DDA"/>
<stop offset="0.257422" stop-color="#93C2FF" stop-opacity="0"/>
</linearGradient>
<radialGradient id="paint3_radial_2_2258" cx="0" cy="0" r="1" gradientUnits="userSpaceOnUse" gradientTransform="translate(30.4375 60.75) rotate(-127.875) scale(22.566 26.1148)">
<stop offset="0.683784" stop-color="#8FABDD" stop-opacity="0"/>
<stop offset="1" stop-color="#5582D3"/>
</radialGradient>
<radialGradient id="paint4_radial_2_2258" cx="0" cy="0" r="1" gradientUnits="userSpaceOnUse" gradientTransform="translate(42.3125 57.1875) rotate(-90) scale(32.0625)">
<stop offset="0.598765" stop-color="#C7DFFF" stop-opacity="0"/>
<stop offset="1" stop-color="#6B97E6"/>
</radialGradient>
<radialGradient id="paint5_radial_2_2258" cx="0" cy="0" r="1" gradientUnits="userSpaceOnUse" gradientTransform="translate(51.9708 57.2667) rotate(-56.3099) scale(25.1187)">
<stop offset="0.47771" stop-color="#8FABDD" stop-opacity="0"/>
<stop offset="1" stop-color="#5582D3"/>
</radialGradient>
<linearGradient id="paint6_linear_2_2258" x1="43.6874" y1="45.5" x2="43.6874" y2="69.25" gradientUnits="userSpaceOnUse">
<stop stop-color="#1A70F0"/>
<stop offset="1" stop-color="#2D94DE"/>
</linearGradient>
<clipPath id="clip0_2_2258">
<rect width="72" height="72" fill="white"/>
</clipPath>
</defs>
</svg>
