<svg width="72" height="72" viewBox="0 0 72 72" fill="none" xmlns="http://www.w3.org/2000/svg">
<g clip-path="url(#clip0_2_2266)">
<path fill-rule="evenodd" clip-rule="evenodd" d="M18.2212 39.8204C33.6922 39.8204 46.234 27.2336 46.234 11.707C46.234 8.37369 45.6559 5.17587 44.5949 2.20899C44.1418 0.9419 45.2796 -0.38907 46.5287 0.111438C57.9375 4.68279 65.9988 15.8742 65.9988 28.9553C65.9988 46.1013 52.1489 60.0009 35.0641 60.0009C21.8073 60.0009 10.4982 51.6321 6.09595 39.8715C5.62392 38.6105 6.98186 37.5017 8.23932 37.9831C11.3401 39.1702 14.705 39.8204 18.2212 39.8204Z" fill="url(#paint0_linear_2_2266)"/>
<path fill-rule="evenodd" clip-rule="evenodd" d="M25.6875 67.25H42.3125H43.5H58.9375C66.1517 67.25 72 61.4017 72 54.1875C72 46.9733 66.1517 41.125 58.9375 41.125C58.6511 41.125 58.3668 41.1342 58.085 41.1524C55.1031 35.4876 49.1589 31.625 42.3125 31.625C33.6835 31.625 26.4877 37.7608 24.8498 45.9073C19.3388 46.3346 15 50.9419 15 56.5625C15 62.465 19.785 67.25 25.6875 67.25Z" fill="#E7F1FF"/>
<path fill-rule="evenodd" clip-rule="evenodd" d="M25.6875 67.25H42.3125H43.5H58.9375C66.1517 67.25 72 61.4017 72 54.1875C72 46.9733 66.1517 41.125 58.9375 41.125C58.6511 41.125 58.3668 41.1342 58.085 41.1524C55.1031 35.4876 49.1589 31.625 42.3125 31.625C33.6835 31.625 26.4877 37.7608 24.8498 45.9073C19.3388 46.3346 15 50.9419 15 56.5625C15 62.465 19.785 67.25 25.6875 67.25Z" fill="url(#paint1_linear_2_2266)"/>
<path fill-rule="evenodd" clip-rule="evenodd" d="M25.6875 67.25H42.3125H43.5H58.9375C66.1517 67.25 72 61.4017 72 54.1875C72 46.9733 66.1517 41.125 58.9375 41.125C58.6511 41.125 58.3668 41.1342 58.085 41.1524C55.1031 35.4876 49.1589 31.625 42.3125 31.625C33.6835 31.625 26.4877 37.7608 24.8498 45.9073C19.3388 46.3346 15 50.9419 15 56.5625C15 62.465 19.785 67.25 25.6875 67.25Z" fill="url(#paint2_linear_2_2266)"/>
<path d="M15 56.5625C15 50.66 19.785 45.875 25.6875 45.875H29.25C37.1201 45.875 43.5 52.2549 43.5 60.125V67.25H25.6875C19.785 67.25 15 62.465 15 56.5625Z" fill="url(#paint3_radial_2_2266)"/>
<path d="M24.5 49.4375C24.5 39.5999 32.4749 31.625 42.3125 31.625C52.1501 31.625 60.125 39.5999 60.125 49.4375C60.125 59.2751 52.1501 67.25 42.3125 67.25C32.4749 67.25 24.5 59.2751 24.5 49.4375Z" fill="url(#paint4_radial_2_2266)"/>
<circle cx="58.9375" cy="54.1875" r="13.0625" fill="url(#paint5_radial_2_2266)"/>
<path fill-rule="evenodd" clip-rule="evenodd" d="M58.9375 43.5C59.5934 43.5 60.125 44.0317 60.125 44.6875V46.5706L60.4728 46.2228C60.9366 45.7591 61.6885 45.7591 62.1522 46.2228C62.616 46.6866 62.616 47.4384 62.1522 47.9022L60.125 49.9294V53.3182L63.0601 51.6236L63.8022 48.854C63.972 48.2205 64.6231 47.8446 65.2566 48.0143C65.8901 48.1841 66.2661 48.8352 66.0963 49.4687L65.9689 49.9443L67.5997 49.0027C68.1677 48.6748 68.8939 48.8694 69.2219 49.4374C69.5498 50.0054 69.3552 50.7316 68.7872 51.0595L67.1569 52.0008L67.6316 52.128C68.2651 52.2977 68.6411 52.9489 68.4713 53.5823C68.3016 54.2158 67.6504 54.5918 67.0169 54.422L64.2482 53.6801L61.3121 55.3753L64.2474 57.0699L67.0162 56.328C67.6497 56.1583 68.3008 56.5342 68.4706 57.1677C68.6403 57.8012 68.2644 58.4524 67.6309 58.6221L67.1561 58.7493L68.7864 59.6905C69.3544 60.0185 69.549 60.7447 69.221 61.3127C68.8931 61.8807 68.1669 62.0753 67.5989 61.7474L65.9681 60.8058L66.0956 61.2813C66.2653 61.9148 65.8894 62.566 65.2559 62.7357C64.6224 62.9055 63.9712 62.5295 63.8015 61.896L63.0594 59.1265L60.125 57.4323V60.8206L62.1522 62.8478C62.616 63.3116 62.616 64.0634 62.1522 64.5272C61.6885 64.9909 60.9366 64.9909 60.4728 64.5272L60.125 64.1794V66.0625C60.125 66.7183 59.5934 67.25 58.9375 67.25C58.2817 67.25 57.75 66.7183 57.75 66.0625V64.1794L57.4022 64.5272C56.9385 64.9909 56.1866 64.9909 55.7228 64.5272C55.2591 64.0634 55.2591 63.3116 55.7228 62.8478L57.75 60.8206V57.4318L54.8151 59.1263L54.0733 61.8948C53.9036 62.5283 53.2524 62.9043 52.6189 62.7345C51.9854 62.5648 51.6095 61.9136 51.7792 61.2801L51.9064 60.8057L50.2759 61.747C49.7079 62.075 48.9817 61.8804 48.6537 61.3124C48.3258 60.7444 48.5204 60.0181 49.0884 59.6902L50.7197 58.7484L50.2439 58.6209C49.6104 58.4512 49.2345 57.8 49.4042 57.1665C49.574 56.533 50.2251 56.1571 50.8586 56.3268L53.6285 57.069L56.5621 55.3753L53.6277 53.6811L50.8579 54.4232C50.2244 54.593 49.5732 54.217 49.4035 53.5835C49.2337 52.9501 49.6097 52.2989 50.2432 52.1292L50.7189 52.0017L49.0876 51.0598C48.5196 50.7319 48.325 50.0057 48.6529 49.4377C48.9809 48.8697 49.7071 48.6751 50.2751 49.003L51.9056 49.9444L51.7785 49.4699C51.6087 48.8364 51.9847 48.1853 52.6182 48.0155C53.2517 47.8458 53.9028 48.2217 54.0726 48.8552L54.8144 51.6238L57.75 53.3187V49.9294L55.7228 47.9022C55.2591 47.4384 55.2591 46.6866 55.7228 46.2228C56.1866 45.7591 56.9385 45.7591 57.4022 46.2228L57.75 46.5706V44.6875C57.75 44.0317 58.2817 43.5 58.9375 43.5Z" fill="url(#paint6_linear_2_2266)"/>
<path fill-rule="evenodd" clip-rule="evenodd" d="M30.4375 48.25C31.0934 48.25 31.625 48.7817 31.625 49.4375V51.3206L31.9728 50.9728C32.4366 50.5091 33.1885 50.5091 33.6522 50.9728C34.116 51.4366 34.116 52.1884 33.6522 52.6522L31.625 54.6794V58.0682L34.5601 56.3736L35.3022 53.604C35.472 52.9705 36.1231 52.5946 36.7566 52.7643C37.3901 52.9341 37.7661 53.5852 37.5963 54.2187L37.4689 54.6943L39.0997 53.7527C39.6677 53.4248 40.3939 53.6194 40.7219 54.1874C41.0498 54.7554 40.8552 55.4816 40.2872 55.8095L38.6569 56.7508L39.1316 56.878C39.7651 57.0477 40.1411 57.6989 39.9713 58.3323C39.8016 58.9658 39.1504 59.3418 38.5169 59.172L35.7482 58.4301L32.8121 60.1253L35.7474 61.8199L38.5162 61.078C39.1497 60.9083 39.8008 61.2842 39.9706 61.9177C40.1403 62.5512 39.7644 63.2024 39.1309 63.3721L38.6561 63.4993L40.2864 64.4405C40.8544 64.7685 41.049 65.4947 40.721 66.0627C40.3931 66.6307 39.6669 66.8253 39.0989 66.4974L37.4681 65.5558L37.5956 66.0313C37.7653 66.6648 37.3894 67.316 36.7559 67.4857C36.1224 67.6555 35.4712 67.2795 35.3015 66.646L34.5594 63.8765L31.625 62.1823V65.5706L33.6522 67.5978C34.116 68.0616 34.116 68.8134 33.6522 69.2772C33.1885 69.7409 32.4366 69.7409 31.9728 69.2772L31.625 68.9294V70.8125C31.625 71.4683 31.0934 72 30.4375 72C29.7817 72 29.25 71.4683 29.25 70.8125V68.9294L28.9022 69.2772C28.4385 69.7409 27.6866 69.7409 27.2228 69.2772C26.7591 68.8134 26.7591 68.0616 27.2228 67.5978L29.25 65.5706V62.1818L26.3151 63.8763L25.5733 66.6448C25.4036 67.2783 24.7524 67.6543 24.1189 67.4845C23.4854 67.3148 23.1095 66.6636 23.2792 66.0301L23.4064 65.5557L21.7759 66.497C21.2079 66.825 20.4817 66.6304 20.1537 66.0624C19.8258 65.4944 20.0204 64.7681 20.5884 64.4402L22.2197 63.4984L21.7439 63.3709C21.1104 63.2012 20.7345 62.55 20.9042 61.9165C21.074 61.283 21.7251 60.9071 22.3586 61.0768L25.1285 61.819L28.0621 60.1253L25.1277 58.4311L22.3579 59.1732C21.7244 59.343 21.0732 58.967 20.9035 58.3335C20.7337 57.7001 21.1097 57.0489 21.7432 56.8792L22.2189 56.7517L20.5876 55.8098C20.0196 55.4819 19.825 54.7557 20.1529 54.1877C20.4809 53.6197 21.2071 53.4251 21.7751 53.753L23.4056 54.6944L23.2785 54.2199C23.1087 53.5864 23.4847 52.9353 24.1182 52.7655C24.7517 52.5958 25.4028 52.9717 25.5726 53.6052L26.3144 56.3738L29.25 58.0687V54.6794L27.2228 52.6522C26.7591 52.1884 26.7591 51.4366 27.2228 50.9728C27.6866 50.5091 28.4385 50.5091 28.9022 50.9728L29.25 51.3206V49.4375C29.25 48.7817 29.7817 48.25 30.4375 48.25Z" fill="url(#paint7_linear_2_2266)"/>
</g>
<defs>
<linearGradient id="paint0_linear_2_2266" x1="61.3414" y1="57.4755" x2="63.8809" y2="-2.09019" gradientUnits="userSpaceOnUse">
<stop stop-color="#EE7F18"/>
<stop offset="0.56298" stop-color="#EEB82E"/>
<stop offset="1" stop-color="#FEB649" stop-opacity="0.78"/>
</linearGradient>
<linearGradient id="paint1_linear_2_2266" x1="32.8125" y1="39.9375" x2="43.5" y2="67.25" gradientUnits="userSpaceOnUse">
<stop stop-color="#C6D8F5"/>
<stop offset="1" stop-color="#89AFD1" stop-opacity="0"/>
</linearGradient>
<linearGradient id="paint2_linear_2_2266" x1="40.4123" y1="68.5108" x2="39.6635" y2="31.625" gradientUnits="userSpaceOnUse">
<stop stop-color="#547DDA"/>
<stop offset="0.257422" stop-color="#93C2FF" stop-opacity="0"/>
</linearGradient>
<radialGradient id="paint3_radial_2_2266" cx="0" cy="0" r="1" gradientUnits="userSpaceOnUse" gradientTransform="translate(30.4375 67.25) rotate(-127.875) scale(22.566 26.1148)">
<stop offset="0.683784" stop-color="#8FABDD" stop-opacity="0"/>
<stop offset="1" stop-color="#5582D3"/>
</radialGradient>
<radialGradient id="paint4_radial_2_2266" cx="0" cy="0" r="1" gradientUnits="userSpaceOnUse" gradientTransform="translate(42.3125 63.6875) rotate(-90) scale(32.0625)">
<stop offset="0.598765" stop-color="#C7DFFF" stop-opacity="0"/>
<stop offset="1" stop-color="#6B97E6"/>
</radialGradient>
<radialGradient id="paint5_radial_2_2266" cx="0" cy="0" r="1" gradientUnits="userSpaceOnUse" gradientTransform="translate(51.9708 63.7667) rotate(-56.3099) scale(25.1187)">
<stop offset="0.47771" stop-color="#8FABDD" stop-opacity="0"/>
<stop offset="1" stop-color="#5582D3"/>
</radialGradient>
<linearGradient id="paint6_linear_2_2266" x1="58.9374" y1="43.5" x2="58.9374" y2="67.25" gradientUnits="userSpaceOnUse">
<stop stop-color="#1A70F0"/>
<stop offset="1" stop-color="#2D94DE"/>
</linearGradient>
<linearGradient id="paint7_linear_2_2266" x1="30.4374" y1="48.25" x2="30.4374" y2="72" gradientUnits="userSpaceOnUse">
<stop stop-color="#1A70F0"/>
<stop offset="1" stop-color="#2D94DE"/>
</linearGradient>
<clipPath id="clip0_2_2266">
<rect width="72" height="72" fill="white"/>
</clipPath>
</defs>
</svg>
