<svg width="72" height="72" viewBox="0 0 72 72" fill="none" xmlns="http://www.w3.org/2000/svg">
<g clip-path="url(#clip0_2_2232)">
<path fill-rule="evenodd" clip-rule="evenodd" d="M8.23575 26.8349C18.6617 26.8349 27.1137 18.3526 27.1137 7.88919C27.1137 5.6428 26.7241 3.48773 26.0091 1.4883C25.7037 0.634409 26.4705 -0.262542 27.3123 0.0747452C35.0008 3.15536 40.4333 10.6974 40.4333 19.5128C40.4333 31.0675 31.0998 40.4346 19.5864 40.4346C10.6526 40.4346 3.03139 34.7948 0.0646626 26.8694C-0.253442 26.0196 0.66167 25.2724 1.50908 25.5968C3.59864 26.3967 5.86621 26.8349 8.23575 26.8349Z" fill="url(#paint0_linear_2_2232)"/>
<path fill-rule="evenodd" clip-rule="evenodd" d="M13.5 69H34.5H36H55.5C64.6127 69 72 61.6127 72 52.5C72 43.3873 64.6127 36 55.5 36C55.1382 36 54.7791 36.0116 54.4231 36.0346C50.6566 28.879 43.1481 24 34.5 24C23.6003 24 14.5107 31.7504 12.4418 42.0409C5.48057 42.5806 0 48.4003 0 55.5C0 62.9558 6.04416 69 13.5 69Z" fill="#E7F1FF"/>
<path fill-rule="evenodd" clip-rule="evenodd" d="M13.5 69H34.5H36H55.5C64.6127 69 72 61.6127 72 52.5C72 43.3873 64.6127 36 55.5 36C55.1382 36 54.7791 36.0116 54.4231 36.0346C50.6566 28.879 43.1481 24 34.5 24C23.6003 24 14.5107 31.7504 12.4418 42.0409C5.48057 42.5806 0 48.4003 0 55.5C0 62.9558 6.04416 69 13.5 69Z" fill="url(#paint1_linear_2_2232)"/>
<path fill-rule="evenodd" clip-rule="evenodd" d="M13.5 69H34.5H36H55.5C64.6127 69 72 61.6127 72 52.5C72 43.3873 64.6127 36 55.5 36C55.1382 36 54.7791 36.0116 54.4231 36.0346C50.6566 28.879 43.1481 24 34.5 24C23.6003 24 14.5107 31.7504 12.4418 42.0409C5.48057 42.5806 0 48.4003 0 55.5C0 62.9558 6.04416 69 13.5 69Z" fill="url(#paint2_linear_2_2232)"/>
<path d="M0 55.5C0 48.0442 6.04416 42 13.5 42H18C27.9411 42 36 50.0589 36 60V69H13.5C6.04416 69 0 62.9558 0 55.5Z" fill="url(#paint3_radial_2_2232)"/>
<path d="M12 46.5C12 34.0736 22.0736 24 34.5 24C46.9264 24 57 34.0736 57 46.5C57 58.9264 46.9264 69 34.5 69C22.0736 69 12 58.9264 12 46.5Z" fill="url(#paint4_radial_2_2232)"/>
<circle cx="55.5" cy="52.5" r="16.5" fill="url(#paint5_radial_2_2232)"/>
<path fill-rule="evenodd" clip-rule="evenodd" d="M39 62.4416V46.3313C39 44.4561 41.2709 43.5211 42.5912 44.8526L53.5949 55.9499C55.6697 57.5986 57 60.1439 57 63C57 67.9705 52.9706 72 48 72C43.0294 72 39 67.9705 39 63C39 62.81 39.0059 62.6214 39.0175 62.4344L39 62.4416Z" fill="#C4C4C4"/>
<path fill-rule="evenodd" clip-rule="evenodd" d="M39 62.4416V46.3313C39 44.4561 41.2709 43.5211 42.5912 44.8526L53.5949 55.9499C55.6697 57.5986 57 60.1439 57 63C57 67.9705 52.9706 72 48 72C43.0294 72 39 67.9705 39 63C39 62.81 39.0059 62.6214 39.0175 62.4344L39 62.4416Z" fill="url(#paint6_linear_2_2232)"/>
</g>
<defs>
<linearGradient id="paint0_linear_2_2232" x1="37.2945" y1="38.7326" x2="39.0059" y2="-1.40894" gradientUnits="userSpaceOnUse">
<stop stop-color="#EE7F18"/>
<stop offset="0.56298" stop-color="#EEB82E"/>
<stop offset="1" stop-color="#FEB649" stop-opacity="0.78"/>
</linearGradient>
<linearGradient id="paint1_linear_2_2232" x1="22.5" y1="34.5" x2="36" y2="69" gradientUnits="userSpaceOnUse">
<stop stop-color="#C6D8F5"/>
<stop offset="1" stop-color="#89AFD1" stop-opacity="0"/>
</linearGradient>
<linearGradient id="paint2_linear_2_2232" x1="32.0998" y1="70.5925" x2="31.1538" y2="24" gradientUnits="userSpaceOnUse">
<stop stop-color="#547DDA"/>
<stop offset="0.257422" stop-color="#93C2FF" stop-opacity="0"/>
</linearGradient>
<radialGradient id="paint3_radial_2_2232" cx="0" cy="0" r="1" gradientUnits="userSpaceOnUse" gradientTransform="translate(19.5 69) rotate(-127.875) scale(28.5044 32.9871)">
<stop offset="0.683784" stop-color="#8FABDD" stop-opacity="0"/>
<stop offset="1" stop-color="#5582D3"/>
</radialGradient>
<radialGradient id="paint4_radial_2_2232" cx="0" cy="0" r="1" gradientUnits="userSpaceOnUse" gradientTransform="translate(34.5 64.5) rotate(-90) scale(40.5)">
<stop offset="0.598765" stop-color="#C7DFFF" stop-opacity="0"/>
<stop offset="1" stop-color="#6B97E6"/>
</radialGradient>
<radialGradient id="paint5_radial_2_2232" cx="0" cy="0" r="1" gradientUnits="userSpaceOnUse" gradientTransform="translate(46.7 64.6) rotate(-56.3099) scale(31.7288)">
<stop offset="0.47771" stop-color="#8FABDD" stop-opacity="0"/>
<stop offset="1" stop-color="#5582D3"/>
</radialGradient>
<linearGradient id="paint6_linear_2_2232" x1="52.5008" y1="70.168" x2="36.57" y2="52.2846" gradientUnits="userSpaceOnUse">
<stop stop-color="#0066FF"/>
<stop offset="1" stop-color="#65ACFF"/>
</linearGradient>
<clipPath id="clip0_2_2232">
<rect width="72" height="72" fill="white"/>
</clipPath>
</defs>
</svg>
