<svg width="72" height="72" viewBox="0 0 72 72" fill="none" xmlns="http://www.w3.org/2000/svg">
<g clip-path="url(#clip0_2_2002)">
<path fill-rule="evenodd" clip-rule="evenodd" d="M13.5 54H34.5H36H55.5C64.6127 54 72 46.6127 72 37.5C72 28.3873 64.6127 21 55.5 21C55.1382 21 54.7791 21.0116 54.4231 21.0346C50.6566 13.879 43.1481 9 34.5 9C23.6003 9 14.5107 16.7504 12.4418 27.0409C5.48057 27.5806 0 33.4003 0 40.5C0 47.9558 6.04416 54 13.5 54Z" fill="#E7F1FF"/>
<path fill-rule="evenodd" clip-rule="evenodd" d="M13.5 54H34.5H36H55.5C64.6127 54 72 46.6127 72 37.5C72 28.3873 64.6127 21 55.5 21C55.1382 21 54.7791 21.0116 54.4231 21.0346C50.6566 13.879 43.1481 9 34.5 9C23.6003 9 14.5107 16.7504 12.4418 27.0409C5.48057 27.5806 0 33.4003 0 40.5C0 47.9558 6.04416 54 13.5 54Z" fill="url(#paint0_linear_2_2002)"/>
<path fill-rule="evenodd" clip-rule="evenodd" d="M13.5 54H34.5H36H55.5C64.6127 54 72 46.6127 72 37.5C72 28.3873 64.6127 21 55.5 21C55.1382 21 54.7791 21.0116 54.4231 21.0346C50.6566 13.879 43.1481 9 34.5 9C23.6003 9 14.5107 16.7504 12.4418 27.0409C5.48057 27.5806 0 33.4003 0 40.5C0 47.9558 6.04416 54 13.5 54Z" fill="url(#paint1_linear_2_2002)"/>
<path d="M0 40.5C0 33.0442 6.04416 27 13.5 27H18C27.9411 27 36 35.0589 36 45V54H13.5C6.04416 54 0 47.9558 0 40.5Z" fill="url(#paint2_radial_2_2002)"/>
<path d="M12 31.5C12 19.0736 22.0736 9 34.5 9C46.9264 9 57 19.0736 57 31.5C57 43.9264 46.9264 54 34.5 54C22.0736 54 12 43.9264 12 31.5Z" fill="url(#paint3_radial_2_2002)"/>
<circle cx="55.5" cy="37.5" r="16.5" fill="url(#paint4_radial_2_2002)"/>
<path fill-rule="evenodd" clip-rule="evenodd" d="M55.4999 36C56.3284 36 56.9999 36.6716 56.9999 37.5V39.8787L57.4393 39.4393C58.0251 38.8536 58.9748 38.8536 59.5606 39.4393C60.1464 40.0251 60.1464 40.9749 59.5606 41.5607L56.9999 44.1213V48.4019L60.7071 46.2616L61.6444 42.7637C61.8588 41.9635 62.6813 41.4886 63.4815 41.703C64.2817 41.9174 64.7566 42.7399 64.5421 43.5401L64.3813 44.1403L66.4413 42.951C67.1588 42.5367 68.0762 42.7826 68.4904 43.5C68.9046 44.2174 68.6588 45.1348 67.9413 45.549L65.8813 46.7384L66.4815 46.8992C67.2817 47.1136 67.7566 47.9361 67.5421 48.7363C67.3277 49.5365 66.5052 50.0114 65.705 49.797L62.2071 48.8597L58.5 51L62.2071 53.1403L65.705 52.203C66.5052 51.9886 67.3277 52.4635 67.5421 53.2637C67.7565 54.0639 67.2816 54.8864 66.4814 55.1008L65.8813 55.2616L67.9413 56.451C68.6587 56.8652 68.9045 57.7826 68.4903 58.5C68.0761 59.2174 67.1587 59.4633 66.4413 59.049L64.3813 57.8597L64.5421 58.4599C64.7565 59.26 64.2816 60.0826 63.4814 60.297C62.6812 60.5114 61.8587 60.0365 61.6443 59.2363L60.7071 55.7384L56.9999 53.5981V57.8787L59.5606 60.4393C60.1464 61.0251 60.1464 61.9749 59.5606 62.5607C58.9748 63.1464 58.0251 63.1464 57.4393 62.5607L56.9999 62.1213V64.5C56.9999 65.3284 56.3284 66 55.4999 66C54.6715 66 53.9999 65.3284 53.9999 64.5V62.1213L53.5606 62.5607C52.9748 63.1464 52.0251 63.1464 51.4393 62.5607C50.8535 61.9749 50.8535 61.0251 51.4393 60.4393L53.9999 57.8787V53.5981L50.2929 55.7384L49.3556 59.2363C49.1412 60.0365 48.3187 60.5114 47.5185 60.297C46.7183 60.0825 46.2434 59.26 46.4578 58.4598L46.6186 57.8597L44.5587 59.049C43.8412 59.4632 42.9238 59.2174 42.5096 58.5C42.0954 57.7826 42.3412 56.8652 43.0587 56.451L45.1186 55.2616L44.5185 55.1008C43.7183 54.8864 43.2434 54.0639 43.4578 53.2637C43.6723 52.4635 44.4948 51.9886 45.295 52.203L48.7929 53.1403L52.5 51L48.7928 48.8597L45.2949 49.797C44.4947 50.0114 43.6722 49.5365 43.4578 48.7363C43.2434 47.9361 43.7182 47.1136 44.5184 46.8992L45.1186 46.7384L43.0586 45.549C42.3412 45.1348 42.0953 44.2174 42.5096 43.5C42.9238 42.7826 43.8412 42.5368 44.5586 42.951L46.6186 44.1403L46.4578 43.5402C46.2434 42.74 46.7182 41.9175 47.5184 41.703C48.3186 41.4886 49.1412 41.9635 49.3556 42.7637L50.2928 46.2616L53.9999 48.4019V44.1213L51.4393 41.5607C50.8535 40.9749 50.8535 40.0251 51.4393 39.4393C52.0251 38.8536 52.9748 38.8536 53.5606 39.4393L53.9999 39.8787V37.5C53.9999 36.6716 54.6715 36 55.4999 36Z" fill="url(#paint5_linear_2_2002)"/>
<path fill-rule="evenodd" clip-rule="evenodd" d="M19.4999 42C20.3284 42 20.9999 42.6716 20.9999 43.5V45.8787L21.4393 45.4393C22.0251 44.8536 22.9748 44.8536 23.5606 45.4393C24.1464 46.0251 24.1464 46.9749 23.5606 47.5607L20.9999 50.1213V54.402L24.7071 52.2616L25.6444 48.7637C25.8588 47.9635 26.6813 47.4886 27.4815 47.703C28.2817 47.9174 28.7566 48.7399 28.5422 49.5401L28.3813 50.1403L30.4413 48.951C31.1588 48.5367 32.0762 48.7826 32.4904 49.5C32.9046 50.2174 32.6588 51.1348 31.9413 51.549L29.8813 52.7384L30.4815 52.8992C31.2817 53.1136 31.7566 53.9361 31.5422 54.7363C31.3277 55.5365 30.5052 56.0114 29.705 55.797L26.2071 54.8597L22.5 57L26.2071 59.1403L29.705 58.203C30.5052 57.9886 31.3277 58.4635 31.5421 59.2637C31.7565 60.0639 31.2816 60.8864 30.4814 61.1008L29.8813 61.2616L31.9413 62.451C32.6587 62.8652 32.9045 63.7826 32.4903 64.5C32.0761 65.2174 31.1587 65.4633 30.4413 65.049L28.3813 63.8597L28.5421 64.4599C28.7565 65.26 28.2816 66.0826 27.4814 66.297C26.6812 66.5114 25.8587 66.0365 25.6443 65.2363L24.7071 61.7384L20.9999 59.5981V63.8787L23.5606 66.4393C24.1464 67.0251 24.1464 67.9749 23.5606 68.5607C22.9748 69.1464 22.0251 69.1464 21.4393 68.5607L20.9999 68.1213V70.5C20.9999 71.3284 20.3284 72 19.4999 72C18.6715 72 17.9999 71.3284 17.9999 70.5V68.1213L17.5606 68.5607C16.9748 69.1464 16.0251 69.1464 15.4393 68.5607C14.8535 67.9749 14.8535 67.0251 15.4393 66.4393L17.9999 63.8787V59.5981L14.2929 61.7384L13.3556 65.2363C13.1412 66.0365 12.3187 66.5114 11.5185 66.297C10.7183 66.0825 10.2434 65.26 10.4578 64.4598L10.6187 63.8597L8.55866 65.049C7.84122 65.4632 6.92383 65.2174 6.50962 64.5C6.0954 63.7826 6.34122 62.8652 7.05866 62.451L9.11866 61.2616L8.5185 61.1008C7.71831 60.8864 7.24343 60.0639 7.45784 59.2637C7.67226 58.4635 8.49476 57.9886 9.29496 58.203L12.7929 59.1403L16.5 57L12.7928 54.8597L9.2949 55.797C8.49471 56.0114 7.6722 55.5365 7.45779 54.7363C7.24338 53.9361 7.71825 53.1136 8.51845 52.8992L9.1186 52.7384L7.0586 51.549C6.34116 51.1348 6.09535 50.2174 6.50956 49.5C6.92378 48.7826 7.84116 48.5368 8.5586 48.951L10.6186 50.1403L10.4578 49.5402C10.2434 48.74 10.7182 47.9175 11.5184 47.703C12.3186 47.4886 13.1412 47.9635 13.3556 48.7637L14.2928 52.2616L17.9999 54.4019V50.1213L15.4393 47.5607C14.8535 46.9749 14.8535 46.0251 15.4393 45.4393C16.0251 44.8536 16.9748 44.8536 17.5606 45.4393L17.9999 45.8787V43.5C17.9999 42.6716 18.6715 42 19.4999 42Z" fill="url(#paint6_linear_2_2002)"/>
</g>
<defs>
<linearGradient id="paint0_linear_2_2002" x1="22.5" y1="19.5" x2="36" y2="54" gradientUnits="userSpaceOnUse">
<stop stop-color="#C6D8F5"/>
<stop offset="1" stop-color="#89AFD1" stop-opacity="0"/>
</linearGradient>
<linearGradient id="paint1_linear_2_2002" x1="32.0998" y1="55.5925" x2="31.1538" y2="9" gradientUnits="userSpaceOnUse">
<stop stop-color="#547DDA"/>
<stop offset="0.257422" stop-color="#93C2FF" stop-opacity="0"/>
</linearGradient>
<radialGradient id="paint2_radial_2_2002" cx="0" cy="0" r="1" gradientUnits="userSpaceOnUse" gradientTransform="translate(19.5 54) rotate(-127.875) scale(28.5044 32.9871)">
<stop offset="0.683784" stop-color="#8FABDD" stop-opacity="0"/>
<stop offset="1" stop-color="#5582D3"/>
</radialGradient>
<radialGradient id="paint3_radial_2_2002" cx="0" cy="0" r="1" gradientUnits="userSpaceOnUse" gradientTransform="translate(34.5 49.5) rotate(-90) scale(40.5)">
<stop offset="0.598765" stop-color="#C7DFFF" stop-opacity="0"/>
<stop offset="1" stop-color="#6B97E6"/>
</radialGradient>
<radialGradient id="paint4_radial_2_2002" cx="0" cy="0" r="1" gradientUnits="userSpaceOnUse" gradientTransform="translate(46.7 49.6) rotate(-56.3099) scale(31.7288)">
<stop offset="0.47771" stop-color="#8FABDD" stop-opacity="0"/>
<stop offset="1" stop-color="#5582D3"/>
</radialGradient>
<linearGradient id="paint5_linear_2_2002" x1="55.4999" y1="36" x2="55.4999" y2="66" gradientUnits="userSpaceOnUse">
<stop stop-color="#1A70F0"/>
<stop offset="1" stop-color="#2D94DE"/>
</linearGradient>
<linearGradient id="paint6_linear_2_2002" x1="19.4999" y1="42" x2="19.4999" y2="72" gradientUnits="userSpaceOnUse">
<stop stop-color="#1A70F0"/>
<stop offset="1" stop-color="#2D94DE"/>
</linearGradient>
<clipPath id="clip0_2_2002">
<rect width="72" height="72" fill="white"/>
</clipPath>
</defs>
</svg>
