<?xml version="1.0" encoding="UTF-8" standalone="no"?>
<svg
   width="72"
   height="72"
   viewBox="0 0 72 72"
   fill="none"
   version="1.1"
   id="svg25"
   sodipodi:docname="RainShowersDayV2.svg"
   inkscape:version="1.4 (e7c3feb100, 2024-10-09)"
   xmlns:inkscape="http://www.inkscape.org/namespaces/inkscape"
   xmlns:sodipodi="http://sodipodi.sourceforge.net/DTD/sodipodi-0.dtd"
   xmlns="http://www.w3.org/2000/svg"
   xmlns:svg="http://www.w3.org/2000/svg">
  <sodipodi:namedview
     id="namedview25"
     pagecolor="#505050"
     bordercolor="#eeeeee"
     borderopacity="1"
     inkscape:showpageshadow="0"
     inkscape:pageopacity="0"
     inkscape:pagecheckerboard="0"
     inkscape:deskcolor="#505050"
     inkscape:zoom="10.487179"
     inkscape:cx="36.044011"
     inkscape:cy="39.000002"
     inkscape:window-width="1920"
     inkscape:window-height="1016"
     inkscape:window-x="0"
     inkscape:window-y="28"
     inkscape:window-maximized="1"
     inkscape:current-layer="svg25" />
  <g
     id="g1"
     transform="translate(0,-6)">
    <ellipse
       cx="54"
       cy="23.99995"
       fill="url(#paint0_linear_537_36578)"
       id="circle1"
       style="fill:url(#paint0_linear_537_36578);stroke-width:0.999999"
       rx="18"
       ry="17.99995" />
    <path
       fill-rule="evenodd"
       clip-rule="evenodd"
       d="m 13.5,65.999833 h 21 1.5 19.5 c 9.1127,0 16.5,-7.387279 16.5,-16.499954 0,-9.112675 -7.3873,-16.499954 -16.5,-16.499954 -0.3618,0 -0.7209,0.0116 -1.0769,0.0346 C 50.6566,25.878945 43.1481,20.999958 34.5,20.999958 c -10.8997,0 -19.9893,7.750379 -22.0582,18.04085 C 5.48057,39.580507 0,45.40019 0,52.499871 0,59.95565 6.04416,65.999833 13.5,65.999833 Z"
       fill="#e7f1ff"
       id="path1"
       style="stroke-width:0.999999" />
    <path
       fill-rule="evenodd"
       clip-rule="evenodd"
       d="m 13.5,65.999833 h 21 1.5 19.5 c 9.1127,0 16.5,-7.387279 16.5,-16.499954 0,-9.112675 -7.3873,-16.499954 -16.5,-16.499954 -0.3618,0 -0.7209,0.0116 -1.0769,0.0346 C 50.6566,25.878945 43.1481,20.999958 34.5,20.999958 c -10.8997,0 -19.9893,7.750379 -22.0582,18.04085 C 5.48057,39.580507 0,45.40019 0,52.499871 0,59.95565 6.04416,65.999833 13.5,65.999833 Z"
       fill="url(#paint1_linear_537_36578)"
       id="path2"
       style="fill:url(#paint1_linear_537_36578);stroke-width:0.999999" />
    <path
       fill-rule="evenodd"
       clip-rule="evenodd"
       d="m 13.5,65.999833 h 21 1.5 19.5 c 9.1127,0 16.5,-7.387279 16.5,-16.499954 0,-9.112675 -7.3873,-16.499954 -16.5,-16.499954 -0.3618,0 -0.7209,0.0116 -1.0769,0.0346 C 50.6566,25.878945 43.1481,20.999958 34.5,20.999958 c -10.8997,0 -19.9893,7.750379 -22.0582,18.04085 C 5.48057,39.580507 0,45.40019 0,52.499871 0,59.95565 6.04416,65.999833 13.5,65.999833 Z"
       fill="url(#paint2_linear_537_36578)"
       id="path3"
       style="fill:url(#paint2_linear_537_36578);stroke-width:0.999999" />
    <path
       d="M 0,52.499871 C 0,45.044091 6.04416,38.999908 13.5,38.999908 H 18 c 9.9411,0 18,8.058878 18,17.99995 v 8.999975 H 13.5 C 6.04416,65.999833 0,59.95565 0,52.499871 Z"
       fill="url(#paint3_radial_537_36578)"
       id="path4"
       style="fill:url(#paint3_radial_537_36578);stroke-width:0.999999" />
    <path
       d="M 12,43.499896 C 12,31.07353 22.0736,20.999958 34.5,20.999958 46.9264,20.999958 57,31.07353 57,43.499896 57,55.926261 46.9264,65.999833 34.5,65.999833 22.0736,65.999833 12,55.926261 12,43.499896 Z"
       fill="url(#paint4_radial_537_36578)"
       id="path5"
       style="fill:url(#paint4_radial_537_36578);stroke-width:0.999999" />
    <ellipse
       cx="55.5"
       cy="49.499878"
       fill="url(#paint5_radial_537_36578)"
       id="circle5"
       style="fill:url(#paint5_radial_537_36578);stroke-width:0.999999"
       rx="16.5"
       ry="16.499954" />
    <path
       fill-rule="evenodd"
       clip-rule="evenodd"
       d="M 45,67.500029 V 47.100486 c 0,-1.875195 2.2709,-2.810192 3.5912,-1.478696 L 62.8413,59.99295 C 64.7903,61.899245 66,64.558337 66,67.500029 66,73.299013 61.299,78 55.5,78 49.701,78 45,73.299013 45,67.500029 Z"
       fill="#c4c4c4"
       id="path6"
       style="stroke-width:0.999999" />
    <path
       fill-rule="evenodd"
       clip-rule="evenodd"
       d="M 45,67.500029 V 47.100486 c 0,-1.875195 2.2709,-2.810192 3.5912,-1.478696 L 62.8413,59.99295 C 64.7903,61.899245 66,64.558337 66,67.500029 66,73.299013 61.299,78 55.5,78 49.701,78 45,73.299013 45,67.500029 Z"
       fill="url(#paint6_linear_537_36578)"
       id="path7"
       style="fill:url(#paint6_linear_537_36578);stroke-width:0.999999" />
    <path
       fill-rule="evenodd"
       clip-rule="evenodd"
       d="M 18,65.440735 V 49.33048 c 0,-1.875195 2.2709,-2.810193 3.5912,-1.478596 L 32.5983,58.952553 C 34.6711,60.601348 36,63.145441 36,65.999833 c 0,4.970586 -4.0294,8.999975 -9,8.999975 -4.9706,0 -9,-4.029389 -9,-8.999975 0,-0.190199 0.0059,-0.378999 0.0175,-0.566298 z"
       fill="#c4c4c4"
       id="path8"
       style="stroke-width:0.999999" />
    <path
       fill-rule="evenodd"
       clip-rule="evenodd"
       d="M 18,65.440735 V 49.33048 c 0,-1.875195 2.2709,-2.810193 3.5912,-1.478596 L 32.5983,58.952553 C 34.6711,60.601348 36,63.145441 36,65.999833 c 0,4.970586 -4.0294,8.999975 -9,8.999975 -4.9706,0 -9,-4.029389 -9,-8.999975 0,-0.190199 0.0059,-0.378999 0.0175,-0.566298 z"
       fill="url(#paint7_linear_537_36578)"
       id="path9"
       style="fill:url(#paint7_linear_537_36578);stroke-width:0.999999" />
  </g>
  <defs
     id="defs25">
    <linearGradient
       id="paint0_linear_537_36578"
       x1="62.1"
       y1="31.8"
       x2="32.7478"
       y2="-4.02444"
       gradientUnits="userSpaceOnUse"
       gradientTransform="matrix(1,0,0,0.99999722,0,1.668324e-5)">
      <stop
         stop-color="#EF6D0F"
         id="stop9" />
      <stop
         offset="0.56298"
         stop-color="#EEB82E"
         id="stop10" />
      <stop
         offset="1"
         stop-color="#FEB649"
         stop-opacity="0.78"
         id="stop11" />
    </linearGradient>
    <linearGradient
       id="paint1_linear_537_36578"
       x1="22.5"
       y1="31.5"
       x2="36"
       y2="66"
       gradientUnits="userSpaceOnUse"
       gradientTransform="matrix(1,0,0,0.99999722,0,1.668324e-5)">
      <stop
         stop-color="#C6D8F5"
         id="stop12" />
      <stop
         offset="1"
         stop-color="#89AFD1"
         stop-opacity="0"
         id="stop13" />
    </linearGradient>
    <linearGradient
       id="paint2_linear_537_36578"
       x1="32.0998"
       y1="67.5925"
       x2="31.1538"
       y2="21"
       gradientUnits="userSpaceOnUse"
       gradientTransform="matrix(1,0,0,0.99999722,0,1.668324e-5)">
      <stop
         stop-color="#547DDA"
         id="stop14" />
      <stop
         offset="0.257422"
         stop-color="#93C2FF"
         stop-opacity="0"
         id="stop15" />
    </linearGradient>
    <radialGradient
       id="paint3_radial_537_36578"
       cx="0"
       cy="0"
       r="1"
       gradientUnits="userSpaceOnUse"
       gradientTransform="matrix(-17.500015,-22.499943,26.038435,-20.252072,19.5,65.999833)">
      <stop
         offset="0.683784"
         stop-color="#8FABDD"
         stop-opacity="0"
         id="stop16" />
      <stop
         offset="1"
         stop-color="#5582D3"
         id="stop17" />
    </radialGradient>
    <radialGradient
       id="paint4_radial_537_36578"
       cx="0"
       cy="0"
       r="1"
       gradientUnits="userSpaceOnUse"
       gradientTransform="matrix(0,-40.499887,40.5,0,34.5,61.499846)">
      <stop
         offset="0.598765"
         stop-color="#C7DFFF"
         stop-opacity="0"
         id="stop18" />
      <stop
         offset="1"
         stop-color="#6B97E6"
         id="stop19" />
    </radialGradient>
    <radialGradient
       id="paint5_radial_537_36578"
       cx="0"
       cy="0"
       r="1"
       gradientUnits="userSpaceOnUse"
       gradientTransform="matrix(17.599987,-26.399874,26.399947,17.599938,46.7,61.599845)">
      <stop
         offset="0.47771"
         stop-color="#8FABDD"
         stop-opacity="0"
         id="stop20" />
      <stop
         offset="1"
         stop-color="#5582D3"
         id="stop21" />
    </radialGradient>
    <linearGradient
       id="paint6_linear_537_36578"
       x1="60.7509"
       y1="75.8232"
       x2="41.7826"
       y2="54.9185"
       gradientUnits="userSpaceOnUse"
       gradientTransform="matrix(1,0,0,0.99999722,0,1.668324e-5)">
      <stop
         stop-color="#0066FF"
         id="stop22" />
      <stop
         offset="1"
         stop-color="#65ACFF"
         id="stop23" />
    </linearGradient>
    <linearGradient
       id="paint7_linear_537_36578"
       x1="31.5008"
       y1="73.1681"
       x2="15.5695"
       y2="55.2846"
       gradientUnits="userSpaceOnUse"
       gradientTransform="matrix(1,0,0,0.99999722,0,1.668324e-5)">
      <stop
         stop-color="#0066FF"
         id="stop24" />
      <stop
         offset="1"
         stop-color="#65ACFF"
         id="stop25" />
    </linearGradient>
  </defs>
</svg>
