<svg fill="none" version="1.1" viewBox="0 0 92 28" width="92" height="28" xmlns="http://www.w3.org/2000/svg">
 <path d="m15.234 22.383s-1.231 5.661 2.234 5.611c2.613-0.038 4.184-3.752 1.895-9.302 0 0-1.945-0.925-4.13 3.69z" fill="url(#a)" style="fill:url(#a)"/>
 <path d="m15.234 22.383s-1.231 5.661 2.234 5.611c2.613-0.038 4.184-3.752 1.895-9.302 0 0-1.945-0.925-4.13 3.69z" fill="url(#b)" style="fill:url(#b)"/>
 <path d="m12.978 22.297s-2.778 5.913-7.052 5.697c-4.272-0.216-5.334-7.74 4.075-11.23 0 0 3.883 1.507 2.976 5.533z" fill="url(#c)" style="fill:url(#c)"/>
 <path d="m15.232 22.383s1.168-13.995 7.285-15.248c3.787-0.776 5.481 1.534 5.481 4.485 0 4.028-4.252 6.236-6.993 7.05-3.08 0.913-4.742 2.358-5.773 3.714z" fill="url(#d)" style="fill:url(#d)"/>
 <path d="m12.977 22.306s0.678-2.363-5.72-5.641c-6.397-3.28-7.144-7.26-7.247-9.556-0.102-2.295 0.588-4.266 1.75-5.379 1.644-1.576 3.138-1.857 5.322-1.67 2.902 0.25 5.942 3.221 7.46 7.87 2.205 6.755-1.565 14.376-1.565 14.376z" fill="url(#e)" style="fill:url(#e)"/>
 <path d="m12.977 22.297s0.678-2.364-5.72-5.642c-6.397-3.28-7.144-7.26-7.247-9.556-0.102-2.295 0.588-4.266 1.75-5.378 1.644-1.577 3.138-1.857 5.322-1.671 2.902 0.249 5.942 3.22 7.46 7.868 2.205 6.756-1.565 14.378-1.565 14.378z" fill="url(#f)" style="fill:url(#f)"/>
 <defs>
  <radialGradient id="a" cx="0" cy="0" r="1" gradientTransform="matrix(-2.7241 -8.5266 15.542 -4.9653 17.746 27.995)" gradientUnits="userSpaceOnUse">
   <stop stop-color="#FFB657" offset="0"/>
   <stop stop-color="#FF835C" offset=".643"/>
   <stop stop-color="#CA2134" offset=".961"/>
  </radialGradient>
  <radialGradient id="b" cx="0" cy="0" r="1" gradientTransform="matrix(-.82033 10.313 -8.7711 -.69769 18.046 18.616)" gradientUnits="userSpaceOnUse">
   <stop stop-color="#FFCD0F" stop-opacity="0" offset=".707"/>
   <stop stop-color="#FFCD0F" offset="1"/>
  </radialGradient>
  <radialGradient id="c" cx="0" cy="0" r="1" gradientTransform="matrix(5.3552 -15.694 10.275 3.5061 5.5147 32.025)" gradientUnits="userSpaceOnUse">
   <stop stop-color="#FFC800" offset=".045"/>
   <stop stop-color="#B5BA1E" offset=".257"/>
   <stop stop-color="#98BD42" offset=".368"/>
   <stop stop-color="#52B471" offset=".587"/>
   <stop stop-color="#018D32" offset=".767"/>
   <stop stop-color="#006523" offset=".878"/>
  </radialGradient>
  <radialGradient id="d" cx="0" cy="0" r="1" gradientTransform="matrix(-.31812 -16.33 19.523 -.38032 17.442 22.799)" gradientUnits="userSpaceOnUse">
   <stop stop-color="#BD00FF" offset=".066"/>
   <stop stop-color="#FF5F3D" offset="1"/>
  </radialGradient>
  <radialGradient id="e" cx="0" cy="0" r="1" gradientTransform="matrix(-1.833 21.087 -34.017 -2.957 9.4498 -2.09)" gradientUnits="userSpaceOnUse">
   <stop stop-color="#3BD5FF" offset="0"/>
   <stop stop-color="#0D91E1" offset=".417"/>
   <stop stop-color="#2764E7" offset=".744"/>
   <stop stop-color="#2052CB" offset="1"/>
  </radialGradient>
  <radialGradient id="f" cx="0" cy="0" r="1" gradientTransform="matrix(-.58321 18.557 -32.857 -1.0326 10.71 -5.196)" gradientUnits="userSpaceOnUse">
   <stop stop-color="#3DEEDF" stop-opacity=".7" offset="0"/>
   <stop stop-color="#0D91E1" stop-opacity="0" offset="1"/>
  </radialGradient>
 </defs>
 <text x="28.277422" y="23.229008" style="fill:#242424;font-size:32px" xml:space="preserve"><tspan x="28.277422" y="23.229008" style="fill:#333333;font-family:Inter, sans-serif;font-size:32px;font-weight:600">wea</tspan></text>
</svg>
