<svg width="20" height="20" viewBox="0 0 20 20" fill="none" xmlns="http://www.w3.org/2000/svg">
<g filter="url(#filter0_i_740_241672)">
<path d="M7.14739 5.07106C7.19419 4.76812 6.95979 4.49512 6.65324 4.49512H1.41536C1.10874 4.49512 0.874303 4.76823 0.921237 5.07124C1.11853 6.34497 1.58048 9.32471 1.65666 9.79222C1.69251 10.0128 1.75025 10.0128 1.7861 9.79222L2.37161 6.1982C2.40745 5.97766 2.47119 5.97562 2.515 6.1982L3.03079 8.85288C3.07461 9.07342 3.14432 9.07342 3.18813 8.85288L3.62228 6.62703C3.6641 6.40648 3.73779 6.40648 3.78359 6.62703L4.64592 10.7499C4.69172 10.9705 4.7654 10.9705 4.8112 10.7499L5.64365 6.77406C5.68946 6.55556 5.75519 6.5576 5.79103 6.77406L6.28293 9.78814C6.31878 10.0087 6.37654 10.0087 6.41438 9.78814C6.49051 9.32012 6.95076 6.34377 7.14739 5.07106Z" fill="url(#paint0_linear_740_241672)"/>
<path d="M7.14739 5.07106C7.19419 4.76812 6.95979 4.49512 6.65324 4.49512H1.41536C1.10874 4.49512 0.874303 4.76823 0.921237 5.07124C1.11853 6.34497 1.58048 9.32471 1.65666 9.79222C1.69251 10.0128 1.75025 10.0128 1.7861 9.79222L2.37161 6.1982C2.40745 5.97766 2.47119 5.97562 2.515 6.1982L3.03079 8.85288C3.07461 9.07342 3.14432 9.07342 3.18813 8.85288L3.62228 6.62703C3.6641 6.40648 3.73779 6.40648 3.78359 6.62703L4.64592 10.7499C4.69172 10.9705 4.7654 10.9705 4.8112 10.7499L5.64365 6.77406C5.68946 6.55556 5.75519 6.5576 5.79103 6.77406L6.28293 9.78814C6.31878 10.0087 6.37654 10.0087 6.41438 9.78814C6.49051 9.32012 6.95076 6.34377 7.14739 5.07106Z" fill="url(#paint1_linear_740_241672)" fill-opacity="0.3"/>
<path d="M7.14739 5.07106C7.19419 4.76812 6.95979 4.49512 6.65324 4.49512H1.41536C1.10874 4.49512 0.874303 4.76823 0.921237 5.07124C1.11853 6.34497 1.58048 9.32471 1.65666 9.79222C1.69251 10.0128 1.75025 10.0128 1.7861 9.79222L2.37161 6.1982C2.40745 5.97766 2.47119 5.97562 2.515 6.1982L3.03079 8.85288C3.07461 9.07342 3.14432 9.07342 3.18813 8.85288L3.62228 6.62703C3.6641 6.40648 3.73779 6.40648 3.78359 6.62703L4.64592 10.7499C4.69172 10.9705 4.7654 10.9705 4.8112 10.7499L5.64365 6.77406C5.68946 6.55556 5.75519 6.5576 5.79103 6.77406L6.28293 9.78814C6.31878 10.0087 6.37654 10.0087 6.41438 9.78814C6.49051 9.32012 6.95076 6.34377 7.14739 5.07106Z" fill="url(#paint2_radial_740_241672)" fill-opacity="0.2"/>
<path d="M7.14739 5.07106C7.19419 4.76812 6.95979 4.49512 6.65324 4.49512H1.41536C1.10874 4.49512 0.874303 4.76823 0.921237 5.07124C1.11853 6.34497 1.58048 9.32471 1.65666 9.79222C1.69251 10.0128 1.75025 10.0128 1.7861 9.79222L2.37161 6.1982C2.40745 5.97766 2.47119 5.97562 2.515 6.1982L3.03079 8.85288C3.07461 9.07342 3.14432 9.07342 3.18813 8.85288L3.62228 6.62703C3.6641 6.40648 3.73779 6.40648 3.78359 6.62703L4.64592 10.7499C4.69172 10.9705 4.7654 10.9705 4.8112 10.7499L5.64365 6.77406C5.68946 6.55556 5.75519 6.5576 5.79103 6.77406L6.28293 9.78814C6.31878 10.0087 6.37654 10.0087 6.41438 9.78814C6.49051 9.32012 6.95076 6.34377 7.14739 5.07106Z" fill="url(#paint3_radial_740_241672)" fill-opacity="0.2"/>
<path d="M7.14739 5.07106C7.19419 4.76812 6.95979 4.49512 6.65324 4.49512H1.41536C1.10874 4.49512 0.874303 4.76823 0.921237 5.07124C1.11853 6.34497 1.58048 9.32471 1.65666 9.79222C1.69251 10.0128 1.75025 10.0128 1.7861 9.79222L2.37161 6.1982C2.40745 5.97766 2.47119 5.97562 2.515 6.1982L3.03079 8.85288C3.07461 9.07342 3.14432 9.07342 3.18813 8.85288L3.62228 6.62703C3.6641 6.40648 3.73779 6.40648 3.78359 6.62703L4.64592 10.7499C4.69172 10.9705 4.7654 10.9705 4.8112 10.7499L5.64365 6.77406C5.68946 6.55556 5.75519 6.5576 5.79103 6.77406L6.28293 9.78814C6.31878 10.0087 6.37654 10.0087 6.41438 9.78814C6.49051 9.32012 6.95076 6.34377 7.14739 5.07106Z" fill="url(#paint4_radial_740_241672)" fill-opacity="0.2"/>
<path d="M7.14739 5.07106C7.19419 4.76812 6.95979 4.49512 6.65324 4.49512H1.41536C1.10874 4.49512 0.874303 4.76823 0.921237 5.07124C1.11853 6.34497 1.58048 9.32471 1.65666 9.79222C1.69251 10.0128 1.75025 10.0128 1.7861 9.79222L2.37161 6.1982C2.40745 5.97766 2.47119 5.97562 2.515 6.1982L3.03079 8.85288C3.07461 9.07342 3.14432 9.07342 3.18813 8.85288L3.62228 6.62703C3.6641 6.40648 3.73779 6.40648 3.78359 6.62703L4.64592 10.7499C4.69172 10.9705 4.7654 10.9705 4.8112 10.7499L5.64365 6.77406C5.68946 6.55556 5.75519 6.5576 5.79103 6.77406L6.28293 9.78814C6.31878 10.0087 6.37654 10.0087 6.41438 9.78814C6.49051 9.32012 6.95076 6.34377 7.14739 5.07106Z" fill="url(#paint5_radial_740_241672)" fill-opacity="0.15"/>
<path d="M7.14739 5.07106C7.19419 4.76812 6.95979 4.49512 6.65324 4.49512H1.41536C1.10874 4.49512 0.874303 4.76823 0.921237 5.07124C1.11853 6.34497 1.58048 9.32471 1.65666 9.79222C1.69251 10.0128 1.75025 10.0128 1.7861 9.79222L2.37161 6.1982C2.40745 5.97766 2.47119 5.97562 2.515 6.1982L3.03079 8.85288C3.07461 9.07342 3.14432 9.07342 3.18813 8.85288L3.62228 6.62703C3.6641 6.40648 3.73779 6.40648 3.78359 6.62703L4.64592 10.7499C4.69172 10.9705 4.7654 10.9705 4.8112 10.7499L5.64365 6.77406C5.68946 6.55556 5.75519 6.5576 5.79103 6.77406L6.28293 9.78814C6.31878 10.0087 6.37654 10.0087 6.41438 9.78814C6.49051 9.32012 6.95076 6.34377 7.14739 5.07106Z" fill="url(#paint6_radial_740_241672)" fill-opacity="0.2"/>
<path d="M7.14739 5.07106C7.19419 4.76812 6.95979 4.49512 6.65324 4.49512H1.41536C1.10874 4.49512 0.874303 4.76823 0.921237 5.07124C1.11853 6.34497 1.58048 9.32471 1.65666 9.79222C1.69251 10.0128 1.75025 10.0128 1.7861 9.79222L2.37161 6.1982C2.40745 5.97766 2.47119 5.97562 2.515 6.1982L3.03079 8.85288C3.07461 9.07342 3.14432 9.07342 3.18813 8.85288L3.62228 6.62703C3.6641 6.40648 3.73779 6.40648 3.78359 6.62703L4.64592 10.7499C4.69172 10.9705 4.7654 10.9705 4.8112 10.7499L5.64365 6.77406C5.68946 6.55556 5.75519 6.5576 5.79103 6.77406L6.28293 9.78814C6.31878 10.0087 6.37654 10.0087 6.41438 9.78814C6.49051 9.32012 6.95076 6.34377 7.14739 5.07106Z" fill="url(#paint7_linear_740_241672)" fill-opacity="0.2"/>
</g>
<path d="M7.14739 5.07106C7.19419 4.76812 6.95979 4.49512 6.65324 4.49512H1.41536C1.10874 4.49512 0.874303 4.76823 0.921237 5.07124C1.11853 6.34497 1.58048 9.32471 1.65666 9.79222C1.69251 10.0128 1.75025 10.0128 1.7861 9.79222L2.37161 6.1982C2.40745 5.97766 2.47119 5.97562 2.515 6.1982L3.03079 8.85288C3.07461 9.07342 3.14432 9.07342 3.18813 8.85288L3.62228 6.62703C3.6641 6.40648 3.73779 6.40648 3.78359 6.62703L4.64592 10.7499C4.69172 10.9705 4.7654 10.9705 4.8112 10.7499L5.64365 6.77406C5.68946 6.55556 5.75519 6.5576 5.79103 6.77406L6.28293 9.78814C6.31878 10.0087 6.37654 10.0087 6.41438 9.78814C6.49051 9.32012 6.95076 6.34377 7.14739 5.07106Z" fill="url(#paint8_linear_740_241672)" fill-opacity="0.5"/>
<path d="M7.14739 5.07106C7.19419 4.76812 6.95979 4.49512 6.65324 4.49512H1.41536C1.10874 4.49512 0.874303 4.76823 0.921237 5.07124C1.11853 6.34497 1.58048 9.32471 1.65666 9.79222C1.69251 10.0128 1.75025 10.0128 1.7861 9.79222L2.37161 6.1982C2.40745 5.97766 2.47119 5.97562 2.515 6.1982L3.03079 8.85288C3.07461 9.07342 3.14432 9.07342 3.18813 8.85288L3.62228 6.62703C3.6641 6.40648 3.73779 6.40648 3.78359 6.62703L4.64592 10.7499C4.69172 10.9705 4.7654 10.9705 4.8112 10.7499L5.64365 6.77406C5.68946 6.55556 5.75519 6.5576 5.79103 6.77406L6.28293 9.78814C6.31878 10.0087 6.37654 10.0087 6.41438 9.78814C6.49051 9.32012 6.95076 6.34377 7.14739 5.07106Z" fill="url(#paint9_radial_740_241672)" fill-opacity="0.7"/>
<path d="M7.14739 5.07106C7.19419 4.76812 6.95979 4.49512 6.65324 4.49512H1.41536C1.10874 4.49512 0.874303 4.76823 0.921237 5.07124C1.11853 6.34497 1.58048 9.32471 1.65666 9.79222C1.69251 10.0128 1.75025 10.0128 1.7861 9.79222L2.37161 6.1982C2.40745 5.97766 2.47119 5.97562 2.515 6.1982L3.03079 8.85288C3.07461 9.07342 3.14432 9.07342 3.18813 8.85288L3.62228 6.62703C3.6641 6.40648 3.73779 6.40648 3.78359 6.62703L4.64592 10.7499C4.69172 10.9705 4.7654 10.9705 4.8112 10.7499L5.64365 6.77406C5.68946 6.55556 5.75519 6.5576 5.79103 6.77406L6.28293 9.78814C6.31878 10.0087 6.37654 10.0087 6.41438 9.78814C6.49051 9.32012 6.95076 6.34377 7.14739 5.07106Z" fill="url(#paint10_radial_740_241672)" fill-opacity="0.6"/>
<path d="M7.14739 5.07106C7.19419 4.76812 6.95979 4.49512 6.65324 4.49512H1.41536C1.10874 4.49512 0.874303 4.76823 0.921237 5.07124C1.11853 6.34497 1.58048 9.32471 1.65666 9.79222C1.69251 10.0128 1.75025 10.0128 1.7861 9.79222L2.37161 6.1982C2.40745 5.97766 2.47119 5.97562 2.515 6.1982L3.03079 8.85288C3.07461 9.07342 3.14432 9.07342 3.18813 8.85288L3.62228 6.62703C3.6641 6.40648 3.73779 6.40648 3.78359 6.62703L4.64592 10.7499C4.69172 10.9705 4.7654 10.9705 4.8112 10.7499L5.64365 6.77406C5.68946 6.55556 5.75519 6.5576 5.79103 6.77406L6.28293 9.78814C6.31878 10.0087 6.37654 10.0087 6.41438 9.78814C6.49051 9.32012 6.95076 6.34377 7.14739 5.07106Z" fill="url(#paint11_radial_740_241672)" fill-opacity="0.6"/>
<g filter="url(#filter1_dd_740_241672)">
<path d="M15.2497 3.77125C15.2497 2.14828 13.9519 0.833008 12.3514 0.833008C10.7509 0.833008 9.45306 2.14828 9.45306 3.77125V11.4943C8.56952 12.3021 8.00391 13.4588 8.00391 14.7586C8.00391 17.1938 9.95132 19.1663 12.3514 19.1663C14.7522 19.1663 16.6989 17.1938 16.6989 14.7586C16.6989 13.4588 16.1332 12.3021 15.2497 11.4943V3.77125Z" fill="url(#paint12_linear_740_241672)"/>
</g>
<g filter="url(#filter2_f_740_241672)">
<path fill-rule="evenodd" clip-rule="evenodd" d="M13.5138 2.89399C13.5137 2.89395 13.5137 2.89395 13.5138 2.89399C13.3614 2.81373 13.3024 2.6242 13.3821 2.47066C13.4617 2.31712 13.6498 2.25771 13.8022 2.33797C14.0669 2.47743 14.4042 2.90643 14.4042 3.63195C14.4042 4.26228 14.3844 9.38767 14.3745 11.8705C14.3738 12.0438 14.2339 12.1837 14.062 12.183C13.89 12.1823 13.7512 12.0413 13.7519 11.868C13.7618 9.38393 13.7816 4.26062 13.7816 3.63195C13.7816 3.36709 13.721 3.1847 13.6571 3.06789C13.6248 3.00875 13.5912 2.96563 13.5631 2.93631C13.5491 2.92166 13.5369 2.911 13.5276 2.90375C13.5192 2.89713 13.5143 2.89432 13.5138 2.89399Z" fill="url(#paint13_linear_740_241672)"/>
</g>
<path fill-rule="evenodd" clip-rule="evenodd" d="M12.3727 2.50488C12.9819 2.50488 13.4758 2.9404 13.4758 3.47764V11.0685C13.4758 11.6057 12.9819 12.0413 12.3727 12.0413C11.7634 12.0413 11.2695 11.6057 11.2695 11.0685V3.47764C11.2695 2.9404 11.7634 2.50488 12.3727 2.50488Z" fill="black" fill-opacity="0.15"/>
<g filter="url(#filter3_d_740_241672)">
<path d="M13.4192 12.4382C13.4192 10.7981 13.4192 9.66326 13.4192 8.02316C13.4192 7.41504 12.9228 6.91748 12.316 6.91748C11.7093 6.91748 11.2129 7.41504 11.2129 8.02316C11.2129 9.66326 11.2129 10.7981 11.2129 12.4382C10.3856 12.8528 9.83398 13.6821 9.83398 14.6772C9.83398 16.0593 10.9371 17.165 12.316 17.165C13.6949 17.165 14.7981 16.0593 14.7981 14.6772C14.7981 13.6821 14.2465 12.8528 13.4192 12.4382Z" fill="url(#paint14_linear_740_241672)"/>
</g>
<path d="M13.4192 12.4416C13.4192 10.8015 13.4192 9.66668 13.4192 8.02658C13.4192 7.41846 12.9228 6.9209 12.316 6.9209C11.7093 6.9209 11.2129 7.41846 11.2129 8.02658C11.2129 9.66668 11.2129 10.8015 11.2129 12.4416C10.3856 12.8562 9.83398 13.6855 9.83398 14.6806C9.83398 16.0627 10.9371 17.1684 12.316 17.1684C13.6949 17.1684 14.7981 16.0627 14.7981 14.6806C14.7981 13.6855 14.2465 12.8562 13.4192 12.4416Z" fill="url(#paint15_linear_740_241672)"/>
<path d="M12.0099 15.8576C12.4521 16.3032 13.169 16.3032 13.6112 15.8576C14.0534 15.412 14.0534 14.6895 13.6112 14.2439C13.169 13.7983 12.4521 13.7983 12.0099 14.2439C11.5677 14.6895 11.5677 15.412 12.0099 15.8576Z" fill="url(#paint16_linear_740_241672)"/>
<g filter="url(#filter4_f_740_241672)">
<path fill-rule="evenodd" clip-rule="evenodd" d="M11.8945 10.9243C11.8945 10.7517 12.0344 10.6118 12.207 10.6118C14.409 10.6118 16.19 12.41 16.19 14.6231C16.19 16.8363 14.409 18.6345 12.207 18.6345C12.0344 18.6345 11.8945 18.4946 11.8945 18.322C11.8945 18.1494 12.0344 18.0095 12.207 18.0095C14.0593 18.0095 15.565 16.4956 15.565 14.6231C15.565 12.7507 14.0593 11.2368 12.207 11.2368C12.0344 11.2368 11.8945 11.0969 11.8945 10.9243Z" fill="url(#paint17_linear_740_241672)"/>
</g>
<defs>
<filter id="filter0_i_740_241672" x="0.499349" y="4.49512" width="6.65495" height="6.96208" filterUnits="userSpaceOnUse" color-interpolation-filters="sRGB">
<feFlood flood-opacity="0" result="BackgroundImageFix"/>
<feBlend mode="normal" in="SourceGraphic" in2="BackgroundImageFix" result="shape"/>
<feColorMatrix in="SourceAlpha" type="matrix" values="0 0 0 0 0 0 0 0 0 0 0 0 0 0 0 0 0 0 127 0" result="hardAlpha"/>
<feOffset dx="-0.416667" dy="0.541667"/>
<feGaussianBlur stdDeviation="0.291667"/>
<feComposite in2="hardAlpha" operator="arithmetic" k2="-1" k3="1"/>
<feColorMatrix type="matrix" values="0 0 0 0 0.044566 0 0 0 0 0.278406 0 0 0 0 0.629167 0 0 0 0.3 0"/>
<feBlend mode="normal" in2="shape" result="effect1_innerShadow_740_241672"/>
</filter>
<filter id="filter1_dd_740_241672" x="7.58724" y="0.416341" width="9.94531" height="19.4168" filterUnits="userSpaceOnUse" color-interpolation-filters="sRGB">
<feFlood flood-opacity="0" result="BackgroundImageFix"/>
<feColorMatrix in="SourceAlpha" type="matrix" values="0 0 0 0 0 0 0 0 0 0 0 0 0 0 0 0 0 0 127 0" result="hardAlpha"/>
<feOffset/>
<feGaussianBlur stdDeviation="0.208333"/>
<feColorMatrix type="matrix" values="0 0 0 0 0 0 0 0 0 0 0 0 0 0 0 0 0 0 0.2 0"/>
<feBlend mode="normal" in2="BackgroundImageFix" result="effect1_dropShadow_740_241672"/>
<feColorMatrix in="SourceAlpha" type="matrix" values="0 0 0 0 0 0 0 0 0 0 0 0 0 0 0 0 0 0 127 0" result="hardAlpha"/>
<feOffset dx="0.416667" dy="0.25"/>
<feGaussianBlur stdDeviation="0.208333"/>
<feColorMatrix type="matrix" values="0 0 0 0 0 0 0 0 0 0 0 0 0 0 0 0 0 0 0.15 0"/>
<feBlend mode="normal" in2="effect1_dropShadow_740_241672" result="effect2_dropShadow_740_241672"/>
<feBlend mode="normal" in="SourceGraphic" in2="effect2_dropShadow_740_241672" result="shape"/>
</filter>
<filter id="filter2_f_740_241672" x="12.7207" y="1.67725" width="2.30859" height="11.1309" filterUnits="userSpaceOnUse" color-interpolation-filters="sRGB">
<feFlood flood-opacity="0" result="BackgroundImageFix"/>
<feBlend mode="normal" in="SourceGraphic" in2="BackgroundImageFix" result="shape"/>
<feGaussianBlur stdDeviation="0.3125" result="effect1_foregroundBlur_740_241672"/>
</filter>
<filter id="filter3_d_740_241672" x="9.66732" y="6.91748" width="5.29818" height="10.5809" filterUnits="userSpaceOnUse" color-interpolation-filters="sRGB">
<feFlood flood-opacity="0" result="BackgroundImageFix"/>
<feColorMatrix in="SourceAlpha" type="matrix" values="0 0 0 0 0 0 0 0 0 0 0 0 0 0 0 0 0 0 127 0" result="hardAlpha"/>
<feOffset dy="0.166667"/>
<feGaussianBlur stdDeviation="0.0833334"/>
<feComposite in2="hardAlpha" operator="out"/>
<feColorMatrix type="matrix" values="0 0 0 0 0.0139583 0 0 0 0 0.474652 0 0 0 0 0.8375 0 0 0 1 0"/>
<feBlend mode="normal" in2="BackgroundImageFix" result="effect1_dropShadow_740_241672"/>
<feBlend mode="normal" in="SourceGraphic" in2="effect1_dropShadow_740_241672" result="shape"/>
</filter>
<filter id="filter4_f_740_241672" x="11.2695" y="9.98682" width="5.54492" height="9.27246" filterUnits="userSpaceOnUse" color-interpolation-filters="sRGB">
<feFlood flood-opacity="0" result="BackgroundImageFix"/>
<feBlend mode="normal" in="SourceGraphic" in2="BackgroundImageFix" result="shape"/>
<feGaussianBlur stdDeviation="0.3125" result="effect1_foregroundBlur_740_241672"/>
</filter>
<linearGradient id="paint0_linear_740_241672" x1="-6.32526" y1="5.46616" x2="4.8457" y2="11.1905" gradientUnits="userSpaceOnUse">
<stop stop-color="#FEFEFF"/>
<stop offset="1" stop-color="#61AEF4"/>
</linearGradient>
<linearGradient id="paint1_linear_740_241672" x1="1.08737" y1="6.46346" x2="2.49367" y2="6.26379" gradientUnits="userSpaceOnUse">
<stop stop-color="white"/>
<stop offset="0.526879" stop-color="#FFF9E9" stop-opacity="0"/>
</linearGradient>
<radialGradient id="paint2_radial_740_241672" cx="0" cy="0" r="1" gradientUnits="userSpaceOnUse" gradientTransform="translate(0.984953 4.49467) rotate(40.1778) scale(1.05866 1.56199)">
<stop stop-color="white"/>
<stop offset="1" stop-color="white" stop-opacity="0"/>
</radialGradient>
<radialGradient id="paint3_radial_740_241672" cx="0" cy="0" r="1" gradientUnits="userSpaceOnUse" gradientTransform="translate(6.26782 9.70608) rotate(90) scale(0.965178 0.956816)">
<stop/>
<stop offset="1" stop-opacity="0"/>
</radialGradient>
<radialGradient id="paint4_radial_740_241672" cx="0" cy="0" r="1" gradientUnits="userSpaceOnUse" gradientTransform="translate(4.75079 10.4784) rotate(95.0533) scale(1.70244 1.68789)">
<stop/>
<stop offset="1" stop-opacity="0"/>
</radialGradient>
<radialGradient id="paint5_radial_740_241672" cx="0" cy="0" r="1" gradientUnits="userSpaceOnUse" gradientTransform="translate(3.07155 8.63912) rotate(87.582) scale(0.728211 0.721922)">
<stop/>
<stop offset="1" stop-opacity="0"/>
</radialGradient>
<radialGradient id="paint6_radial_740_241672" cx="0" cy="0" r="1" gradientUnits="userSpaceOnUse" gradientTransform="translate(1.69992 9.12244) rotate(90) scale(1.49358 1.48064)">
<stop/>
<stop offset="1" stop-opacity="0"/>
</radialGradient>
<linearGradient id="paint7_linear_740_241672" x1="7.55358" y1="4.70597" x2="6.48245" y2="5.55" gradientUnits="userSpaceOnUse">
<stop stop-color="#001753"/>
<stop offset="1" stop-color="#031F68" stop-opacity="0"/>
</linearGradient>
<linearGradient id="paint8_linear_740_241672" x1="1.23889" y1="7.29693" x2="1.67351" y2="7.23158" gradientUnits="userSpaceOnUse">
<stop stop-color="white"/>
<stop offset="1" stop-color="white" stop-opacity="0"/>
</linearGradient>
<radialGradient id="paint9_radial_740_241672" cx="0" cy="0" r="1" gradientUnits="userSpaceOnUse" gradientTransform="translate(2.69187 7.70514) rotate(-10.6248) scale(0.346372 1.92898)">
<stop stop-color="white"/>
<stop offset="1" stop-color="white" stop-opacity="0"/>
</radialGradient>
<radialGradient id="paint10_radial_740_241672" cx="0" cy="0" r="1" gradientUnits="userSpaceOnUse" gradientTransform="translate(4.1514 8.97514) rotate(-11.7066) scale(0.466528 2.69872)">
<stop stop-color="white"/>
<stop offset="1" stop-color="white" stop-opacity="0"/>
</radialGradient>
<radialGradient id="paint11_radial_740_241672" cx="0" cy="0" r="1" gradientUnits="userSpaceOnUse" gradientTransform="translate(5.91241 8.44889) rotate(-10.7655) scale(0.457988 2.05062)">
<stop stop-color="white"/>
<stop offset="0.964336" stop-color="white" stop-opacity="0"/>
</radialGradient>
<linearGradient id="paint12_linear_740_241672" x1="9.45441" y1="11.3867" x2="14.9601" y2="11.3867" gradientUnits="userSpaceOnUse">
<stop stop-color="#BADBFF"/>
<stop offset="1" stop-color="#D5EEFF"/>
</linearGradient>
<linearGradient id="paint13_linear_740_241672" x1="13.6678" y1="1.51037" x2="9.20496" y2="9.58517" gradientUnits="userSpaceOnUse">
<stop stop-color="#C8F6FF" stop-opacity="0"/>
<stop offset="0.321794" stop-color="#C8F6FF"/>
</linearGradient>
<linearGradient id="paint14_linear_740_241672" x1="8.59296" y1="16.5314" x2="13.5125" y2="15.6403" gradientUnits="userSpaceOnUse">
<stop offset="0.0520833" stop-color="#2697F0"/>
<stop offset="0.385417" stop-color="#2697F0"/>
<stop offset="0.921875" stop-color="#2697F0"/>
</linearGradient>
<linearGradient id="paint15_linear_740_241672" x1="8.62797" y1="13.3757" x2="13.1134" y2="15.2604" gradientUnits="userSpaceOnUse">
<stop offset="0.395833" stop-color="#10C6EE" stop-opacity="0.71"/>
<stop offset="1" stop-color="#0046AF"/>
</linearGradient>
<linearGradient id="paint16_linear_740_241672" x1="13.3262" y1="13.9566" x2="11.7125" y2="15.5579" gradientUnits="userSpaceOnUse">
<stop stop-color="white"/>
<stop offset="0.733331" stop-color="white" stop-opacity="0.1"/>
</linearGradient>
<linearGradient id="paint17_linear_740_241672" x1="13.2707" y1="14.1133" x2="16.1225" y2="14.1126" gradientUnits="userSpaceOnUse">
<stop stop-color="#C8F6FF" stop-opacity="0"/>
<stop offset="0.989832" stop-color="#C8F6FF"/>
</linearGradient>
</defs>
</svg>
