<svg width="72" height="72" viewBox="0 0 72 72" fill="none" xmlns="http://www.w3.org/2000/svg">
<path fill-rule="evenodd" clip-rule="evenodd" d="M13.5 54H34.5H36H55.5C64.6127 54 72 46.6127 72 37.5C72 28.3873 64.6127 21 55.5 21C55.1382 21 54.7791 21.0116 54.4231 21.0346C50.6566 13.879 43.1481 9 34.5 9C23.6003 9 14.5107 16.7504 12.4418 27.0409C5.48057 27.5806 0 33.4003 0 40.5C0 47.9558 6.04416 54 13.5 54Z" fill="#E7F1FF"/>
<path fill-rule="evenodd" clip-rule="evenodd" d="M13.5 54H34.5H36H55.5C64.6127 54 72 46.6127 72 37.5C72 28.3873 64.6127 21 55.5 21C55.1382 21 54.7791 21.0116 54.4231 21.0346C50.6566 13.879 43.1481 9 34.5 9C23.6003 9 14.5107 16.7504 12.4418 27.0409C5.48057 27.5806 0 33.4003 0 40.5C0 47.9558 6.04416 54 13.5 54Z" fill="url(#paint0_linear_537_36599)"/>
<path fill-rule="evenodd" clip-rule="evenodd" d="M13.5 54H34.5H36H55.5C64.6127 54 72 46.6127 72 37.5C72 28.3873 64.6127 21 55.5 21C55.1382 21 54.7791 21.0116 54.4231 21.0346C50.6566 13.879 43.1481 9 34.5 9C23.6003 9 14.5107 16.7504 12.4418 27.0409C5.48057 27.5806 0 33.4003 0 40.5C0 47.9558 6.04416 54 13.5 54Z" fill="url(#paint1_linear_537_36599)"/>
<path d="M0 40.5C0 33.0442 6.04416 27 13.5 27H18C27.9411 27 36 35.0589 36 45V54H13.5C6.04416 54 0 47.9558 0 40.5Z" fill="url(#paint2_radial_537_36599)"/>
<path d="M12 31.5C12 19.0736 22.0736 9 34.5 9C46.9264 9 57 19.0736 57 31.5C57 43.9264 46.9264 54 34.5 54C22.0736 54 12 43.9264 12 31.5Z" fill="url(#paint3_radial_537_36599)"/>
<circle cx="55.5" cy="37.5" r="16.5" fill="url(#paint4_radial_537_36599)"/>
<path fill-rule="evenodd" clip-rule="evenodd" d="M55.5 36C56.3284 36 57 36.6716 57 37.5V39.8787L57.4393 39.4393C58.0251 38.8536 58.9749 38.8536 59.5607 39.4393C60.1465 40.0251 60.1465 40.9749 59.5607 41.5607L57 44.1213V48.4021L60.7077 46.2615L61.6449 42.7639C61.8593 41.9637 62.6818 41.4888 63.482 41.7032C64.2822 41.9176 64.7571 42.7401 64.5426 43.5403L64.3819 44.1402L66.4417 42.951C67.1591 42.5367 68.0765 42.7826 68.4907 43.5C68.9049 44.2174 68.6591 45.1348 67.9417 45.549L65.8815 46.7385L66.482 46.8994C67.2822 47.1138 67.7571 47.9363 67.5426 48.7365C67.3282 49.5367 66.5057 50.0116 65.7055 49.7971L62.2073 48.8598L58.5 51.0002L62.2067 53.1402L65.705 52.2029C66.5052 51.9884 67.3277 52.4633 67.5421 53.2635C67.7565 54.0637 67.2816 54.8862 66.4814 55.1006L65.8809 55.2615L67.941 56.451C68.6585 56.8652 68.9043 57.7826 68.4901 58.5C68.0759 59.2174 67.1585 59.4633 66.441 59.049L64.3814 57.8599L64.5421 58.4597C64.7565 59.2599 64.2816 60.0824 63.4814 60.2968C62.6812 60.5112 61.8587 60.0363 61.6443 59.2361L60.7071 55.7386L57 53.5983V57.8787L59.5607 60.4393C60.1465 61.0251 60.1465 61.9749 59.5607 62.5607C58.9749 63.1464 58.0251 63.1464 57.4393 62.5607L57 62.1213V64.5C57 65.3284 56.3284 66 55.5 66C54.6716 66 54 65.3284 54 64.5V62.1213L53.5607 62.5607C52.9749 63.1464 52.0251 63.1464 51.4393 62.5607C50.8536 61.9749 50.8536 61.0251 51.4393 60.4393L54 57.8787V53.5983L50.293 55.7385L49.3557 59.2365C49.1413 60.0367 48.3188 60.5116 47.5186 60.2971C46.7184 60.0827 46.2435 59.2602 46.4579 58.46L46.6187 57.8598L44.559 59.049C43.8415 59.4633 42.9241 59.2174 42.5099 58.5C42.0957 57.7826 42.3415 56.8652 43.059 56.451L45.1187 55.2618L44.5186 55.101C43.7184 54.8866 43.2435 54.0641 43.4579 53.2639C43.6723 52.4637 44.4948 51.9888 45.295 52.2032L48.7929 53.1405L52.5 51.0002L48.7923 48.8595L45.2945 49.7968C44.4943 50.0112 43.6718 49.5363 43.4574 48.7361C43.243 47.9359 43.7178 47.1134 44.518 46.899L45.1181 46.7382L43.0584 45.549C42.3409 45.1348 42.0951 44.2174 42.5093 43.5C42.9235 42.7826 43.8409 42.5367 44.5584 42.951L46.6182 44.1402L46.4574 43.54C46.243 42.7398 46.7178 41.9173 47.518 41.7029C48.3182 41.4884 49.1407 41.9633 49.3551 42.7635L50.2924 46.2615L54 48.4021V44.1213L51.4393 41.5607C50.8536 40.9749 50.8536 40.0251 51.4393 39.4393C52.0251 38.8536 52.9749 38.8536 53.5607 39.4393L54 39.8787V37.5C54 36.6716 54.6716 36 55.5 36Z" fill="url(#paint5_linear_537_36599)"/>
<path fill-rule="evenodd" clip-rule="evenodd" d="M19.5 42C20.3284 42 21 42.6716 21 43.5V45.8787L21.4393 45.4393C22.0251 44.8536 22.9749 44.8536 23.5607 45.4393C24.1465 46.0251 24.1465 46.9749 23.5607 47.5607L21 50.1213V54.4021L24.7077 52.2615L25.6449 48.7639C25.8593 47.9637 26.6818 47.4888 27.482 47.7032C28.2822 47.9176 28.7571 48.7401 28.5426 49.5403L28.3819 50.1402L30.4417 48.951C31.1591 48.5367 32.0765 48.7826 32.4907 49.5C32.9049 50.2174 32.6591 51.1348 31.9417 51.549L29.8815 52.7385L30.482 52.8994C31.2822 53.1138 31.7571 53.9363 31.5426 54.7365C31.3282 55.5367 30.5057 56.0116 29.7055 55.7971L26.2073 54.8598L22.5 57.0002L26.2067 59.1402L29.705 58.2029C30.5052 57.9884 31.3277 58.4633 31.5421 59.2635C31.7565 60.0637 31.2816 60.8862 30.4814 61.1006L29.8809 61.2615L31.941 62.451C32.6585 62.8652 32.9043 63.7826 32.4901 64.5C32.0759 65.2174 31.1585 65.4633 30.441 65.049L28.3814 63.8599L28.5421 64.4597C28.7565 65.2599 28.2816 66.0824 27.4814 66.2968C26.6812 66.5112 25.8587 66.0363 25.6443 65.2361L24.7071 61.7386L21 59.5983V63.8787L23.5607 66.4393C24.1465 67.0251 24.1465 67.9749 23.5607 68.5607C22.9749 69.1464 22.0251 69.1464 21.4393 68.5607L21 68.1213V70.5C21 71.3284 20.3284 72 19.5 72C18.6716 72 18 71.3284 18 70.5V68.1213L17.5607 68.5607C16.9749 69.1464 16.0251 69.1464 15.4393 68.5607C14.8536 67.9749 14.8536 67.0251 15.4393 66.4393L18 63.8787V59.5983L14.293 61.7385L13.3557 65.2365C13.1413 66.0367 12.3188 66.5116 11.5186 66.2971C10.7184 66.0827 10.2435 65.2602 10.4579 64.46L10.6187 63.8598L8.55897 65.049C7.84153 65.4633 6.92415 65.2174 6.50993 64.5C6.09572 63.7826 6.34153 62.8652 7.05897 62.451L9.11869 61.2618L8.51858 61.101C7.71839 60.8866 7.24351 60.0641 7.45792 59.2639C7.67234 58.4637 8.49484 57.9888 9.29504 58.2032L12.7929 59.1405L16.5 57.0002L12.7923 54.8595L9.29448 55.7968C8.49429 56.0112 7.67178 55.5363 7.45737 54.7361C7.24295 53.9359 7.71783 53.1134 8.51803 52.899L9.11809 52.7382L7.05836 51.549C6.34092 51.1348 6.0951 50.2174 6.50932 49.5C6.92353 48.7826 7.84092 48.5367 8.55836 48.951L10.6182 50.1402L10.4574 49.54C10.243 48.7398 10.7178 47.9173 11.518 47.7029C12.3182 47.4884 13.1407 47.9633 13.3551 48.7635L14.2924 52.2615L18 54.4021V50.1213L15.4393 47.5607C14.8536 46.9749 14.8536 46.0251 15.4393 45.4393C16.0251 44.8536 16.9749 44.8536 17.5607 45.4393L18 45.8787V43.5C18 42.6716 18.6716 42 19.5 42Z" fill="url(#paint6_linear_537_36599)"/>
<path fill-rule="evenodd" clip-rule="evenodd" d="M34.8288 24C35.4088 24 35.8789 24.4701 35.8789 25.05V26.2973L35.9773 26.1989C36.3873 25.7888 37.0521 25.7888 37.4622 26.1989C37.8723 26.609 37.8723 27.2738 37.4622 27.6838L35.8789 29.2672V31.7416L38.0217 30.5044L38.6013 28.3415C38.7514 27.7814 39.3271 27.449 39.8873 27.599C40.4474 27.7491 40.7798 28.3249 40.6297 28.885L40.5937 29.0195L41.6732 28.3962C42.1754 28.1063 42.8176 28.2783 43.1076 28.7806C43.3975 29.2828 43.2254 29.925 42.7232 30.2149L41.6429 30.8386L41.7786 30.875C42.3388 31.0251 42.6712 31.6008 42.5211 32.161C42.371 32.7211 41.7952 33.0535 41.2351 32.9034L39.0709 32.3236L36.9271 33.5613L39.0702 34.7986L41.2339 34.2188C41.794 34.0687 42.3698 34.4011 42.5199 34.9613C42.67 35.5214 42.3376 36.0972 41.7774 36.2473L41.6422 36.2835L42.7226 36.9073C43.2248 37.1973 43.3969 37.8395 43.107 38.3417C42.817 38.8439 42.1748 39.016 41.6726 38.726L40.5924 38.1024L40.6285 38.2372C40.7786 38.7974 40.4462 39.3731 39.8861 39.5232C39.3259 39.6733 38.7502 39.3409 38.6001 38.7807L38.0204 36.6174L35.8789 35.381V37.8551L37.4622 39.4384C37.8723 39.8485 37.8723 40.5133 37.4622 40.9233C37.0521 41.3334 36.3873 41.3334 35.9773 40.9233L35.8789 40.8249V42.0722C35.8789 42.6521 35.4088 43.1222 34.8288 43.1222C34.2489 43.1222 33.7788 42.6521 33.7788 42.0722V40.824L33.6795 40.9233C33.2694 41.3334 32.6046 41.3334 32.1945 40.9233C31.7845 40.5133 31.7845 39.8485 32.1945 39.4384L33.7788 37.8541V35.379L31.6345 36.617L31.0547 38.7807C30.9046 39.3409 30.3289 39.6733 29.7687 39.5232C29.2086 39.3731 28.8762 38.7973 29.0263 38.2372L29.0625 38.1019L27.9816 38.726C27.4793 39.016 26.8372 38.8439 26.5472 38.3417C26.2573 37.8395 26.4293 37.1973 26.9315 36.9073L28.0122 36.2834L27.8774 36.2473C27.3172 36.0972 26.9848 35.5214 27.1349 34.9613C27.285 34.4011 27.8608 34.0687 28.4209 34.2188L30.5842 34.7985L32.7271 33.5613L30.5838 32.3239L28.4208 32.9035C27.8606 33.0536 27.2849 32.7211 27.1348 32.161C26.9847 31.6008 27.3171 31.0251 27.8772 30.875L28.0118 30.8389L26.9309 30.2149C26.4287 29.925 26.2567 29.2828 26.5466 28.7806C26.8366 28.2784 27.4787 28.1063 27.981 28.3962L29.0625 29.0206L29.0261 28.8851C28.876 28.3249 29.2085 27.7492 29.7686 27.5991C30.3287 27.449 30.9045 27.7814 31.0546 28.3415L31.6345 30.5056L33.7788 31.7436V29.2681L32.1945 27.6838C31.7845 27.2738 31.7845 26.609 32.1945 26.1989C32.6046 25.7888 33.2694 25.7888 33.6795 26.1989L33.7788 26.2982V25.05C33.7788 24.4701 34.2489 24 34.8288 24Z" fill="url(#paint7_linear_537_36599)"/>
<defs>
<linearGradient id="paint0_linear_537_36599" x1="22.5" y1="19.5" x2="36" y2="54" gradientUnits="userSpaceOnUse">
<stop stop-color="#C6D8F5"/>
<stop offset="1" stop-color="#89AFD1" stop-opacity="0"/>
</linearGradient>
<linearGradient id="paint1_linear_537_36599" x1="32.0998" y1="55.5925" x2="31.1538" y2="9" gradientUnits="userSpaceOnUse">
<stop stop-color="#547DDA"/>
<stop offset="0.257422" stop-color="#93C2FF" stop-opacity="0"/>
</linearGradient>
<radialGradient id="paint2_radial_537_36599" cx="0" cy="0" r="1" gradientUnits="userSpaceOnUse" gradientTransform="translate(19.5 54) rotate(-127.875) scale(28.5044 32.9871)">
<stop offset="0.683784" stop-color="#8FABDD" stop-opacity="0"/>
<stop offset="1" stop-color="#5582D3"/>
</radialGradient>
<radialGradient id="paint3_radial_537_36599" cx="0" cy="0" r="1" gradientUnits="userSpaceOnUse" gradientTransform="translate(34.5 49.5) rotate(-90) scale(40.5)">
<stop offset="0.598765" stop-color="#C7DFFF" stop-opacity="0"/>
<stop offset="1" stop-color="#6B97E6"/>
</radialGradient>
<radialGradient id="paint4_radial_537_36599" cx="0" cy="0" r="1" gradientUnits="userSpaceOnUse" gradientTransform="translate(46.7 49.6) rotate(-56.3099) scale(31.7288)">
<stop offset="0.47771" stop-color="#8FABDD" stop-opacity="0"/>
<stop offset="1" stop-color="#5582D3"/>
</radialGradient>
<linearGradient id="paint5_linear_537_36599" x1="55.5" y1="36" x2="55.5" y2="66" gradientUnits="userSpaceOnUse">
<stop stop-color="#1A70F0"/>
<stop offset="1" stop-color="#2D94DE"/>
</linearGradient>
<linearGradient id="paint6_linear_537_36599" x1="19.5" y1="42" x2="19.5" y2="72" gradientUnits="userSpaceOnUse">
<stop stop-color="#1A70F0"/>
<stop offset="1" stop-color="#2D94DE"/>
</linearGradient>
<linearGradient id="paint7_linear_537_36599" x1="34.827" y1="24" x2="34.827" y2="43.1222" gradientUnits="userSpaceOnUse">
<stop stop-color="#1A70F0"/>
<stop offset="1" stop-color="#2D94DE"/>
</linearGradient>
</defs>
</svg>
